<svg xmlns="http://www.w3.org/2000/svg" xmlns:xlink="http://www.w3.org/1999/xlink" width="1217" height="324.475" viewBox="0 0 1217 324.475"><defs><filter id="Path_128190"><feGaussianBlur stdDeviation="3"></feGaussianBlur></filter><filter id="Path_128191" x="43.33" y="43.351" width="255.471" height="255.392"><feGaussianBlur stdDeviation="13"></feGaussianBlur></filter></defs><g id="Group_33831" data-name="Group 33831" transform="translate(0 -0.263)"><g id="Group_33830" data-name="Group 33830"><path id="tree_for_laser_cutting" data-name="tree for laser cutting" d="M670.106,133.4a25.68,25.68,0,0,0-.863-3.5c-1.582-3.983-1.488-7.78,1.345-11.152,2.279-2.718,4.767-5.256,7.19-7.859a8.888,8.888,0,0,1,1.078-.863,11.073,11.073,0,0,1,.5,17.515c-1.589,1.309-3.43,2.3-5.112,3.5a3.982,3.982,0,0,0-1.194,1.6c4.566-2.646,8.527-2.229,11.08,1.345a12.209,12.209,0,0,0-.87,1.488c-1.309,3.164-3.38,4.925-7.075,4.415a1.575,1.575,0,0,0-1.769,2.243c1.905,4.746,3.854,9.462,5.831,14.309.158-.475.345-.935.482-1.438,1.819-6.011,4.983-11.059,10.26-14.675a2.156,2.156,0,0,0,.611-1.848,30.231,30.231,0,0,1,.827-15.919c2.193-6.277,6.205-10.685,13.1-11.418s12.576,2.128,16.617,7.881a53.7,53.7,0,0,1,3.128,5.882,20.224,20.224,0,0,0,2.5-3.847c1.755-4.81,7.622-7.665,13.194-6.212a18.048,18.048,0,0,1,2.358.762c2.934,1.215,5.86,2.466,8.88,3.753a11.555,11.555,0,0,1-6.155,7.571,12.555,12.555,0,0,1-9.276,1.021c.489,2.725.964,5.407,1.438,8.233a6.538,6.538,0,0,0,.935-.288,31.983,31.983,0,0,1,15-2.876,1.971,1.971,0,0,0,2.366-1.438,6.673,6.673,0,0,1,5.314-4.652c1.438-.288,2.646-1.438,4.041-2.2,3.394,2.157,3.257,6.205-.626,10.534.489.237.935.482,1.395.676a30.408,30.408,0,0,1,16.7,16.286,1.956,1.956,0,0,0,2.157,1.438c2.344-.058,4.7.165,6.859.259L787.1,142.734c6.91-1.819,14.035,3.315,13.978,10.138,0,3.135.985,4.8,3.365,6.665,5.551,4.314,8.147,10.591,9.52,17.336,2.049,10.066,1,19.982-1.438,29.833-.129.489-.23.992-.4,1.762,1.438-.475,2.646-.963,3.876-1.244,2.754-.626,5.551-1.093,8.3-1.747a2.726,2.726,0,0,0,1.661-1.2c1.366-2.754,1.2-3.48-.928-5.673a17.437,17.437,0,0,1-4.969-12c-.1-3.063,0-6.14,0-9.47a10.335,10.335,0,0,1,8.664,2.308,14.378,14.378,0,0,1,3.94,4.666,15.593,15.593,0,0,1,1.453,6.1c.093,1.992-.525,4.027-.856,6.176a11.18,11.18,0,0,1,9.282.05c-1.855,5.45-6.521,7.269-11.5,8.686l.245.532a6.528,6.528,0,0,0,.719.266c10.3,2.668,15.746,9.879,18.17,19.723a30,30,0,0,1,.424,7.377c0,1.812.338,3.085,2.042,4.091,3.875,2.287,5.378,6.9,3.768,12.224a103.7,103.7,0,0,1-4.055,9.743c-5.393-5.148-4.479-11.159-3.9-17.257a28.169,28.169,0,0,1-2.157,4.2c-2.085,2.833-2.373,5.5-.957,8.894,1.827,4.386,1.589,9.124.539,13.784a12.943,12.943,0,0,0-.158,3.5,2.063,2.063,0,0,0,.762,1.438c3.883,2.308,5.076,6.025,5.486,10.181.144,1.51.295,3.02.446,4.515-5.954,1.179-10.138-2.977-10.412-10.5-1.208,1.647-2.344,3.034-3.264,4.559-.237.4.086,1.222.309,1.79,2.344,5.925,4.853,11.785,7.046,17.76,2.6,7.082,4.192,14.381,3.768,22.024-.532,9.577-3.308,18.321-10.785,24.77-2.351,2.02-3.192,4.149-3.818,7.025-4.084,18.731-14.553,32.68-31.939,41.093-6,2.876-12.475,2.876-18.932,1.877-1.481-.237-2.157.043-2.826,1.438-3.38,7.025-7.909,13.086-15.366,16.236a29.61,29.61,0,0,1-20.6,1.265c-4.314-1.309-4.314-1.309-6.644,2.574-3.07,5.112-6.982,9.268-12.942,10.958-6.838,1.941-12.993.093-18.58-3.868-2.481-1.762-4.674-3.933-6.428-5.436-2.531,2.215-5.033,4.573-7.679,6.694a26.319,26.319,0,0,1-33.507-.223,2.452,2.452,0,0,0-1.841-.41,17.766,17.766,0,0,1-19.622-7.586,3.64,3.64,0,0,1-.3-.439c-.841-1.747-1.8-2.315-3.983-1.618-4.911,1.582-9.7.5-14.194-1.848a36.231,36.231,0,0,1-15.294-15.819c-1.344-2.553-2.351-5.278-3.6-7.909a2.251,2.251,0,0,0-1.438-1.215c-14.625-1.3-25.748-8.8-34.628-19.917a56.59,56.59,0,0,1-12.942-34.751,2.365,2.365,0,0,0-.813-1.582c-8.247-6.687-11.778-15.74-12.942-25.928a43.316,43.316,0,0,1,2.747-21.053,4.558,4.558,0,0,0-.474-4.71c-9.772-14.683-9.664-35.815.122-49.548a17.524,17.524,0,0,1,2.819-3.408c1.74-1.438,1.97-3.236,2.214-5.292.719-5.918,1.151-11.921,2.581-17.674,3.315-13.144,11.943-21.679,24.763-25.892,1.848-.6,2.524-1.23,2.581-3.3.223-7.909,1.639-15.581,5.968-22.333,6.543-10.225,15.919-15.545,28.243-15.258a46.632,46.632,0,0,1,5.8.719c1.33.2,2.035-.259,2.826-1.438,2.581-3.8,5.033-7.773,8.175-11.1,11.691-12.4,28.977-11.835,40.107,1.086.964,1.114,1.841,2.294,2.761,3.437ZM800.9,339.5c-20.974,14.093-40.316,11.922-58.32-5.263-.036,1.647.05,3.121,2.107,4.134a11.281,11.281,0,0,1,6.241,6.917c.482,1.639.87,3.307,1.186,4.983.489,2.581.884,5.177,1.438,8.218a43.234,43.234,0,0,1-5.752-.582c-7.622-1.848-11.454-9.57-8.628-17.508a8.9,8.9,0,0,0,.122-5.752c-.518.295-.957.561-1.438.8a7.191,7.191,0,0,1-6.96,0c-.46-.237-1.035-.992-.963-1.438.661-3.559,1.539-7.018,6.191-7.14h.18c1.258-.3,1.438-1.007,1.158-2.251a73.9,73.9,0,0,1-1.948-9.851c-.2-2.114-.547-3.034-2.876-3.451-4.372-.791-7.19-3.739-8.319-8.039a15.085,15.085,0,0,1,3.092-13.733c3.947,3.264,8.4,5.86,9.613,11.691,4.954-14.165,13.561-23.8,28.272-26.791.36-4.918-1.919-7.694-7.255-8.952-5.033-1.186-10.117-.611-15.143.209-2.157.345-4.206,1.014-6.313,1.539l-.1.82c5.594-1.395,9.347.374,10.785,5.9.891,3.43-.194,6.371-2.581,8.866-4.106-2.876-6.838-6.471-7.42-11.454a1.8,1.8,0,0,0-.805-1.251c-1.7-.719-3.415-1.208-5.213-.05a41.051,41.051,0,0,0-10.922,10.023c-2.329,3.128-4.408,6.644-4.206,10.692.259,5.414.985,10.785,1.575,16.214.323,2.912.985,5.81,1.086,8.722.072,2.157-.647,4.314-.8,6.471q-.417,6.169-.554,12.353a2.977,2.977,0,0,0,.964,1.934,241.192,241.192,0,0,0,26.482,22.218c3.595,2.567,7.3,4.976,10.886,7.413a4.834,4.834,0,0,0,.7-.453c10.34-11.893,23.009-17.163,38.777-13.626a1.768,1.768,0,0,0,1.438-.568c2.157-2.682,4.17-5.422,6.3-8.219Zm-182.5-2.818c1.438,1.934,1.007,3.933.05,5.946a11.823,11.823,0,0,0-1.028,2.632c-.223,1.179-.956,1.215-1.826,1.079-3.667-.582-7.262-3.818-4.386-8.729,1.215-2.085.841-3.092-1.266-4.228a37.425,37.425,0,0,1-12.583-10.987,8.815,8.815,0,0,0-.813-.87c-1.042,3.818-2.056,7.528-3.106,11.382-.719-.367-1.23-.6-1.719-.92-5.378-3.444-6.227-11.907-1.6-17.026a5.033,5.033,0,0,0,1.3-5.328,23.145,23.145,0,0,1-.1-12.6,7.213,7.213,0,0,0,.086-1.215L579,298.512c.216.719.41,1.323.59,1.941,2.524,8.707,4.034,17.487,1.934,26.539a2.71,2.71,0,0,0,.619,1.833c1.51,2.114,3.192,4.106,4.631,6.263a2.739,2.739,0,0,0,2.711,1.388c7.859-.144,14.158,2.934,18.464,9.563,1.726,2.66,3.013,5.608,4.479,8.434.453.863.841,1.762,1.287,2.689.5-.237.82-.374,1.129-.532a204.155,204.155,0,0,0,26.7-17.1c7.061-5.184,12.907-11.3,16.538-19.507a33.286,33.286,0,0,0,2.84-18.968c-.367-2.33-1.079-4.6-1.632-6.9a8.377,8.377,0,0,0-1.776,2.7,18.8,18.8,0,0,1-9.908,9.915c-1.187.525-2.344,1.114-3.495,1.711a2.574,2.574,0,0,0-1.107.82,30.455,30.455,0,0,0-3.358,11.044c4.465-.906,8.082.547,11.368,3.121-2.876,4.861-6.831,6.471-12.755,5.033a2.226,2.226,0,0,0-2.876,1.072,14.259,14.259,0,0,1-9.067,6.348A69.888,69.888,0,0,1,618.408,336.678ZM607.723,206.742c.719,1.381,1.251,2.43,1.833,3.437a9.994,9.994,0,0,1,.208,9.987c-.417.848-.834,1.7-1.28,2.524-1.589,2.955-1.179,5.163,1.33,7.456A173.445,173.445,0,0,0,634.859,248.7a3.4,3.4,0,0,0,.661.23c-2.811-8.47.259-17.782,6.27-19.27a26.346,26.346,0,0,0,1.891,3.768c3.753,5.227,4.019,10.929,2.553,16.919-.223.913-.719,2.013-.388,2.754,1.193,2.962,2.337,6.047,5.846,7.543-1.129-2.718-2.157-5.522-.784-8.254,1.323-2.6,3.077-4.968,4.7-7.528a7.686,7.686,0,0,1,3.121,7.3c-.28,2.876-2.042,4.954-4.106,6.816s-1.876,3.02-.108,4.832c3.5,3.6,6.9,7.291,10.318,10.972a5.583,5.583,0,0,1,.662,1.186c-.187-6.133-.834-11.886-1.215-17.652-1.014-15.136-8.484-26.892-19.162-36.994-1.488-1.438-5.385-1.172-6.766.273a14.949,14.949,0,0,1-22.348-1.014,20.291,20.291,0,0,1-1.783-3.257c2.229-.942,4.113-1.625,5.9-2.509a14.287,14.287,0,0,1,11.224-.884c2.222.719,4.314,1.855,6.471,2.775.719.295,1.438.51,2.114.762l.173-.532C630.832,209.258,620,206.469,607.723,206.742Zm168.152-.618a13.719,13.719,0,0,1,1.381,9.426c-.992,4.9-4.271,8-8.477,10.325a13.721,13.721,0,0,0-2.157,1.848,60.885,60.885,0,0,0,8.628.331,3.025,3.025,0,0,0,1.589-.669c4.314-3.293,8.664-6.558,12.943-9.937A35.078,35.078,0,0,0,801.7,198.753c.992-3.552,1.719-7.19,2.6-10.879-10.153.661-14.129-9.829-9.6-16.725,3.991,2.826,7.514,6.018,9.3,11.044,1.877-10.785-8.772-22.585-17.932-20.341,1.237,14.15-3,26.6-12.015,37.634,2.272.23,3.825-.086,4.947-2.157a11.152,11.152,0,0,1,8.513-5.752c3.775-.532,7.6-.719,11.5-1.079.482,4.379-.719,8.017-3.955,10.785-4.746,4.084-9.894,3.473-15.488,1.632-2.718-.892-5.982-.144-9-.108-.187,0-.367.28-.561.417-2.1,1.438-4.221,2.819-6.284,4.314a2.573,2.573,0,0,0-1.086,1.438,66.237,66.237,0,0,1-4.537,16.681c-.877,2.157.367,3.6,2.567,3.214.41-.065.812-.129,1.222-.209a4.221,4.221,0,0,0,3.48-4.623,13.216,13.216,0,0,1,2.876-9.793c2.337-2.718,4.912-5.241,7.615-8.125Zm13.546,38.942c-.374,2.984,0,4.7,1.251,5.4,6.795,3.775,7.7,11.353,4.314,17.523a10.091,10.091,0,0,1-7.427,5.572,55.943,55.943,0,0,0-2.107-6.054,11.7,11.7,0,0,1-1.309-7.535c.554-2.639,1.373-5.234,2.064-7.852a6.144,6.144,0,0,0,.4-1.855c-.115-2-.352-3.991-.561-6.234l-4.314-.892c.654,4.163-.6,7.284-3.9,9.426-2.531,1.639-5.335,1.589-8.219,1.122a16.257,16.257,0,0,0-3.43.165l-.086.525c8.283,4.242,11.382,11.3,10.98,20.212,8.52,1.848,14.431,6.572,17.393,14.884a4.6,4.6,0,0,0,.115-2.092c-.6-3.437,0-6.514,2.876-8.794a11.5,11.5,0,0,1,9.98-2.437c1.812.374,3.257,1.323,3.545,2.517a41.287,41.287,0,0,0-2.7,5.033,6.288,6.288,0,0,1-3.761,4.185c-1.963.719-4.012,1.352-6.04,1.963-1.726.518-3.6,3.552-3,5.544a38.887,38.887,0,0,0,4.005-1.438,5.824,5.824,0,0,1,7.766,2.545c.388.719.676,1.438.992,2.157,2.272-1.92,4.415-3.847,6.687-5.608a2.438,2.438,0,0,0,1.129-2.524c-.719-5.206-1.093-10.476-2.157-15.6-1.676-7.866-4.588-15.279-10.067-21.391a30.043,30.043,0,0,0-14.415-8.47ZM616.768,330.249a11.61,11.61,0,0,0,15.5-4.149,26.813,26.813,0,0,0,3.631-18.91c-1.8-10.2-8.47-17.415-15.466-24.274-3.775,1.237-4.789,4.314-5.716,7.485a2.977,2.977,0,0,0,.77,3.329,14.179,14.179,0,0,1,4.451,10.62c0,1.834,1,3.7,1.625,5.522a10.834,10.834,0,0,0,.992,1.783,9.268,9.268,0,0,1-10.908-.331c-5.608-4.041-6.155-12.087-1.539-17.976,1.3-1.661,1.7-4.012,2.524-6.047a22.349,22.349,0,0,0-10.857,7.88,15.819,15.819,0,0,0-3.178,9.24c.043,10.217,5.235,17.631,13.194,23.4a1.622,1.622,0,0,0,2.7-.863c.338-.82.661-1.639,1.014-2.452,2.114-4.846,9.6-8.794,14.488-7.658C628.431,325.382,624.591,329.314,616.768,330.249Zm20.284-65.022c-1.057-.892-1.826-1.611-2.66-2.243-4.6-3.516-9.434-6.773-13.762-10.6-3.372-2.977-6.788-4.458-11.174-3.243a3.832,3.832,0,0,0-1.769.87c-3.451,3.933-7.715,5.472-12.749,4.012-5.457-1.582-9.024-5.3-10.958-10.584,7.658-3.264,14.92-2.8,21.794,1.625a5.831,5.831,0,0,0,5.033.719c-.46-.331-.762-.582-1.093-.776-5.752-3.257-11.5-6.579-17.257-9.743-5.076-2.761-10.232-5.364-15.891-6.845-1.6-.417-2.294,0-2.754,1.438q-1.553,4.7-3.157,9.347a2.258,2.258,0,0,0,.9,2.775c4.041,3.063,7.852,6.471,12.159,9.139,10.836,6.637,21.858,12.942,31.81,20.945a1.74,1.74,0,0,0,1.4.4c3.128-1.345,6.219-2.79,9.347-4.2v-.482a8.434,8.434,0,0,0-2.524.043c-2.711.9-5.465,1.237-7.8-.539-2.552-1.934-4.781-4.314-7.255-6.565a12.9,12.9,0,0,1,1.021-.863c4.99-3.495,10.785-2.157,14.323,3.343a6.6,6.6,0,0,0,3.322,2.919,6.874,6.874,0,0,0,5.285.165,34.965,34.965,0,0,1,4.415-1.057Zm195.792,23.728a90.336,90.336,0,0,1-7.722,5.651c-2.056,1.2-2.689,2.747-2.955,4.925-1.5,12.159-4.767,23.6-13.662,32.709a1.61,1.61,0,0,0-.4,1.366,34.142,34.142,0,0,0,1.6,3.171,72.586,72.586,0,0,1,7.737-3.638c6.2-2.085,13.223-1.165,16.466,5.242,0,.079.187.1.288.144,4.07-4.71,6.946-17.415,5.235-23.138-4.717,6.248-10.527,8.7-15.1,6.4,2.078-5.321,5.083-9.836,10.5-12.31a4.68,4.68,0,0,0,1.834-1.028c.568-.762,1.33-1.9,1.129-2.632-1.517-5.6-3.214-11.087-4.947-16.868Zm-169.022,105.7c4.53,4.314,7.96,8.83,8.29,15.049s-2.6,11.066-7.4,15.1a19.062,19.062,0,0,0,14.381,3.473c7.636-1.072,12.468-5.975,16.02-12.4a1.769,1.769,0,0,0-.2-1.539c-3.336-4.436-6.651-8.894-10.131-13.209a24.159,24.159,0,0,0-8.549-7.039c-4.091-1.934-8.161-1.683-12.411.539Zm65.086-188.63a45.8,45.8,0,0,1-3.351,4.221,50.946,50.946,0,0,0-11.181,17.494c-.295.719-.511,1.5-.762,2.243a26.269,26.269,0,0,0,3.89-3.466c1.244-1.251,2.524-2.452,3.789-3.681,3.991,3.552,3.459,10.785-1.316,14.2a19.788,19.788,0,0,1-5.968,2.452c-1.74.518-2.157.87-1.575,2.531.769,2.322,2.33,3.6,4.767,3.458a58.883,58.883,0,0,0,15.021-2.373c2.322-.719,3.286-2.74,4.738-4.314l-2.61-3.4a4.731,4.731,0,0,0-.5-.511,8.743,8.743,0,0,1-2.56-6.565c0-3.264-.338-6.529-.539-10.131a7.749,7.749,0,0,1,6.011-.374c4.767,1.352,7.305,4.767,8.3,9.843a58.8,58.8,0,0,0,7.046-16.365c-8.6,1.273-16.457.28-23.212-5.263Zm57.033,114.894c3.7,3.013,4.573,7.111,2.042,11.023-.273.424-1.078,1.014-1.244.906-2.373-1.488-5.551-2.085-6.234-5.522a32.467,32.467,0,0,0-.992-3.3c-2.387,0-4.623.137-6.831-.058a2.157,2.157,0,0,0-2.236.9c-2.545,3.6-6.141,5.033-10.433,4.825a2.894,2.894,0,0,0-3.221,2.207c1.481.863,2.962,1.819,4.516,2.617,12.015,6.2,23.972,6.378,35.872-.374a1.866,1.866,0,0,0,1.151-2.366c-2.33-9.491,0-18.119,4.954-26.23.295-.482.582-.971,1.05-1.747-3.365.216-4.717-1.747-5.6-4.257-.158-.446-.245-1.057-.568-1.273a5.571,5.571,0,0,0-2.2-.848c-.187,0-.719.913-.719,1.438a29.44,29.44,0,0,1-3.156,12.612c-1.833,3.264-4.079,6.277-6.15,9.448ZM571.2,290.365a6.4,6.4,0,0,0-.144-.784,94.785,94.785,0,0,1-5.853-46.1,3.594,3.594,0,0,0-.611-2.049c-1.984-3.279-4.041-6.514-6.069-9.764-.208-.338-.439-.654-.719-1.093-1.6.82-3.171,1.517-4.624,2.4a2.287,2.287,0,0,0-.971,1.632c0,5.321-.086,10.649.223,15.955.13,2.193.827,4.379,3.6,5.292a9.081,9.081,0,0,1,5.9,6.205c1.783,5.925-.086,11.1-3.724,16.286l-6.931-6.68c-.906,3.7-1.7,7.507-2.8,11.224-.489,1.654,0,2.4,1.294,3.271C556.291,290.466,563.553,290.868,571.2,290.365ZM806.362,347.47c-1.345,1.762-2.567,3.351-3.775,4.947-.374.51-.719,1.05-1.143,1.682a16.91,16.91,0,0,1,2.157,1.15c2.193,1.675,4.631,3.142,6.471,5.163a10.556,10.556,0,0,1,1.007,12.842,23.94,23.94,0,0,1-8.24,8.377,28.014,28.014,0,0,1-14.014,3.832c-.575,0-1.481.173-1.654.532a37.706,37.706,0,0,0-1.438,4.063c6,1.8,12.9,1.345,17.659-1.194a52.121,52.121,0,0,0,25.058-28.689c.719-1.891,1.158-3.868,1.833-6.155-9.45,2.358-17.14-.058-23.921-6.55ZM569.88,265.58l-.453.209a1.433,1.433,0,0,0-.086.482,80.9,80.9,0,0,0,5.206,21.779c.626,1.568,1.438,1.726,2.912,1.438,8-1.675,15.344-5.033,22.628-8.556,3.653-1.762,7.248-3.645,11.231-5.666l-11.814-8.2c.892,4.4,1.438,8.413-.992,12.181-5.831-3.523-9.3-8.42-9.3-15.344,0-2.33-1.438-3.66-3.128-4.8-5.608-3.782-11.245-7.521-16.976-11.339-.115,2.732-.144,5.752-.4,8.8-.208,2.459.87,4.314,2.337,6.076a2.092,2.092,0,0,0,2.272.841c2.567-.446,5.235-.805,7.622.6,4.688,2.761,6.9,7.32,8.765,12.224-3.6,1.438-6.931,2.488-10.541,1.388-5.86-1.8-8.1-6.551-9.283-12.109Zm9.131,67.588c-5.479,8.233-12.755,9.736-21.715,6.371a80.946,80.946,0,0,0,2.948,11.627c5.033,13.661,13.762,24.095,27.445,29.868a27.936,27.936,0,0,0,10.067,2.157c-.784-3.408-1.5-6.665-2.33-9.9-.086-.331-.848-.64-1.316-.683-2.056-.194-4.149-.094-6.169-.446-8.571-1.5-12.9-7.19-14.668-15.251s1.1-14.467,8.283-18.493a8.13,8.13,0,0,0,.719-.546Zm166.2,50.008c-2.243-1.352-4.458-2.588-6.572-3.991q-9.678-6.406-19.263-12.942c-1.064-.719-1.69-.719-2.459.3a8.341,8.341,0,0,0-1.654,7.147,47.527,47.527,0,0,0,16.9,26.942c1.222.978,2.546,1.826,3.947,2.826Zm-15.5-235.5a37.2,37.2,0,0,1,7.694,13.618,1.755,1.755,0,0,0,1.438.834,59.54,59.54,0,0,0,8.269-.92c7.909-1.762,15.718-3.768,23.577-5.616,2.624-.618,5.285-1.064,7.945-1.6-4.925-13.942-24.814-20.061-35.6-13.805a6.327,6.327,0,0,0,2.416-.093c5.12-1.438,9.534-.482,13.165,3.6,2.157,2.452,4.516,4.746,6.953,7.291.108-.288.072-.115,0,0-3.185,5.5-11.375,6.55-16.768,2.157-2.668-2.157-4.113-5.119-5.328-8.226-.762-1.949-4.681-3.523-6.4-2.409-2.46,1.611-4.766,3.344-7.363,5.17ZM563.654,298.1a33.557,33.557,0,0,1-17.53-7.909,38.821,38.821,0,0,1-1.23,4.012c-.676,1.582-.18,2.229,1.381,2.819,2.97,1.129,5.666,2.668,6.622,6.1s2.049,6.975,3.1,10.534c-3.207,2.157-5.652,2.02-12.144-1.028,1.388,6.622,3.387,12.763,8.628,17.5.374-1.2.633-2.157.978-3.106,1.682-4.587,4.817-7.456,9.764-8.175a15.443,15.443,0,0,1,10.462,2.5c1.395.856,2.7,1.87,4.228,2.941,1.438-7.579.158-14.711-1.92-21.851a9.721,9.721,0,0,1-4.853,6.133c-2.661,1.51-5.35,2.962-8.039,4.444C559.26,309.721,559.4,304.091,563.654,298.1ZM700.377,164.319a36.543,36.543,0,0,0-1.258,5.752,9.57,9.57,0,0,1-2.833,6.665,46.622,46.622,0,0,1-4.846,4.127,8.038,8.038,0,0,0-3.106,8.478,33.2,33.2,0,0,1,1.539,10.282,6.829,6.829,0,0,0,.64,2.725c.474,1.237,1.438,1.345,2.121.309a13.24,13.24,0,0,0,2.078-4.213c1.891-8.729,4.221-17.321,7.967-25.454,1.79-3.9,3.9-7.658,5.925-11.6-6.371-3.919-11.468-9.031-14.567-15.927-7.291,4.314-9.995,17.458-8.686,24.641C690.5,163.471,696.473,161.292,700.377,164.319Zm-.719,239.544a53.589,53.589,0,0,0,1.323-16.322,2.5,2.5,0,0,0-1-1.56c-4.156-3.085-8.2-6.363-12.6-9.081a22.162,22.162,0,0,0-14.172-3.538c-2.876.3-5.939,1.086-7.442,3.53-1.913,3.092-2.948,6.723-4.494,10.426.719-.295,1.114-.453,1.517-.633a21.038,21.038,0,0,1,17.178-.266,33.477,33.477,0,0,1,11.5,8.341c2.732,2.89,5.306,5.9,8.183,9.117Zm57.285-233.619a22.707,22.707,0,0,1,2.466-1.7,11.13,11.13,0,0,1,14.309,4.106,14.07,14.07,0,0,1,2.042,8.808,12.734,12.734,0,0,0,.28,2.473l.554-.043c3.164-7,4.925-14.251,4.127-22.4-4.055.669-7.845,1.186-11.591,1.934-7.277,1.438-14.517,3.128-21.8,4.551-2.646.525-5.378.6-8.254.906.1,1.438.194,2.8.295,4.271a12.083,12.083,0,0,1,1.927,0c3.235.539,6.672.6,9.656,1.79,7.766,3.092,10.785,9.757,11.929,17.523.338,2.358.367,4.76.554,7.37a10.963,10.963,0,0,0,1.539-1.136c2.833-3.077,5.752-6.09,8.391-9.347a3.187,3.187,0,0,0-2.157-5.22,12.182,12.182,0,0,1-9.7-6.824c-1.221-2.344-2.891-4.508-4.564-7.068Zm-137.335,2.948c-3.875-1.438-5.558-4.508-6.608-7.988l-7.406,10.57c6.191,3.3,8.535,8.758,7.428,15.517a6.3,6.3,0,0,0,2.711,6.665,6.557,6.557,0,0,0,3.106,1.309c2.761.316,5.551.374,8.4.539-6.205-15.955-4.911-31.285,2.732-46.571-3.063-1.309-6.1-2.589-9.225-3.919-.719,2.445-1.107,4.314.281,6.4a9.492,9.492,0,0,1,.978,8.01c-.834,3.07-1.582,6.162-2.431,9.469Zm27.905-1.273c.439,5.752-2.279,9.57-6.924,12.3a22.8,22.8,0,0,1-4.156,1.949,4.673,4.673,0,0,0-3.07,3.156,6.762,6.762,0,0,0,.5,6.4c2.049,3.121,3.933,6.342,7.327,8.247l17.141,9.613c.539.3,1.057.64,1.992,1.215-.791-4.551-1.481-8.672-2.236-12.777-.467-2.531-.511-2.517-3.192-2.373a7.193,7.193,0,0,1-1.438-.079c-4.731-.676-7.442-4.436-11.167-7,3.991-3.681,8.154-4.235,13.022-1.8a82.713,82.713,0,0,0-7.837-18.846Zm72.155,2.955c1.179,5.968-.719,10.131-5.393,12.82a11.671,11.671,0,0,1-2.042,1.05,1.891,1.891,0,0,0-1.438,2.409c.482,2.66.647,5.436,1.524,7.952a13.569,13.569,0,0,0,3.516,5.35c2.409,2.207,4.472,1.8,6.593-.669.388-.446.719-.942,1.143-1.352,1.028-.985,1.086-1.891.467-3.264-3.775-8.391-1.136-18.371,6.385-22.772,2.747-1.6,3.789-3.236,3.063-6.169a1.147,1.147,0,0,1,0-.352c.086-.956-.338-1.359-1.3-1.438a56.985,56.985,0,0,1-5.953-.82c-3.38-.719-6.723-1.582-10.2-2.416-2.157,4.156-4.99,8.1-4.738,13.043ZM654.035,365.165c-4.472,4.048-8.571,8.24-13.166,11.785s-9.657,6.421-14.711,9.721l9.628,20.442C646.8,394.9,650.57,380.157,654.035,365.165Zm119.848-75.332-.518-.158c-1.078,2.337-2.229,4.645-3.228,7.018a50.947,50.947,0,0,0-3.121,8.226c-.841,3.739-.525,7.492,2.689,10.253,4.257,3.66,9.541,3.192,13.467-1.474a23.835,23.835,0,0,0,4.8-23.39c-1.517-4.976-6.953-9.053-11.828-9.175a14.2,14.2,0,0,0-1.085,3.832c0,1.985,0,4.1,2.121,5.414a7.866,7.866,0,0,1,3.768,5.752c.583,4.228-.755,8-3.042,11.591-.295-.18-.5-.28-.676-.417-5.227-4.091-6.471-8.851-3.976-15.445.252-.654.418-1.352.626-2.028Zm-8.858-8.528c-12.3,3.883-18.1,12.425-20.133,24.073-1.611,9.3,2.833,20.313,10.289,25.008a11.173,11.173,0,0,0,.928-2.718,7.406,7.406,0,0,1,6.737-7.19c.417-.05.827-.151,1.481-.28a17.7,17.7,0,0,1-5.587-11.21l-8.254,9.563c-4.314-3.494-4.041-10.67.719-14.381,1.625-1.266,3.8-1.783,5.63-2.819a5.79,5.79,0,0,0,2.639-2.294c1.438-3.559,2.56-7.19,3.71-10.872.67-2.093,1.185-4.264,1.84-6.882ZM744.669,407.444c14.747,5.033,24.447,1.7,30.2-10.34l-23.319-10.023Q748.186,397.025,744.669,407.444ZM761.034,368.9c3.43,2.567,13.935,6.9,20.032,8.463,1.575.4,2.157.115,2.84-1.438,2.732-6,5.7-11.893,8.578-17.825.194-.4.367-.8.568-1.222A29.358,29.358,0,0,0,761.034,368.9ZM614.187,148.076a31.589,31.589,0,0,0-12.633.374c-1.524.345-1.884.949-1.373,2.445.719,2.157,1.517,4.472.252,6.529-2.258,3.689-4.839,7.19-7.291,10.785a12.644,12.644,0,0,1-5.867-8,38.316,38.316,0,0,0-4.365,18.961c1.129-.266,2.042-.475,2.955-.719,7.528-1.884,14.165-5.191,18.9-11.648C608.938,161.1,611.066,154.425,614.187,148.076Zm-1.855,51.26c-1.028-1.618-1.862-2.79-3.775-3.149a9.657,9.657,0,0,1-7.909-9.045,66.231,66.231,0,0,1,.618-8.2c-4.947,3.6-10.785,5.587-16.768,7.126a1.64,1.64,0,0,0-.863,1.337,53.717,53.717,0,0,0,5.817,17.005c7.255-3.293,14.841-4.537,22.879-5.069Zm194.705,23.728c9.182,1.783,16.955,6.169,24.2,12.1a12.731,12.731,0,0,1,.367-3.308c1.143-2.948,2.43-5.838,3.7-8.736.446-1.014,1.323-1.949,1.438-2.977.482-4.314-1.683-6.9-5.946-7.19C821.173,212.178,814.033,217.4,807.037,223.064Zm-67.813-33.076a8.117,8.117,0,0,1,4.846-3.969c3.688-1.158,6.888-.057,9.714,2.481.086-.252.137-.309.122-.36-1.977-7.1-7.334-9.146-13.661-9.556-1.05-.065-1.05.618-1.136,1.373a51.62,51.62,0,0,1-4.365,15.977c-.956,2.071-2.064,4.063-3.121,6.133.475.345.849.633,1.237.892a10.648,10.648,0,0,0,.935.51c6.263,3.207,12.72,2.43,19.184.827a1.611,1.611,0,0,0,.906-1.122c.331-2.207.539-4.429.841-7.025-6.558,1.244-10.332-3.861-15.524-6.2Zm-100.31-39.633c9.951,5.99,15.265,15.423,20.765,24.929a5.034,5.034,0,0,0,.288-2.876,18.616,18.616,0,0,0-1.9-3.775,8.966,8.966,0,0,1-1.309-6.615c.784-3.739,1.711-7.456,2.6-11.274a13.108,13.108,0,0,1,8.513,5.242c-.719-7.492-5.817-10.541-11.9-12.116C649.074,142.1,643.746,145.323,638.914,150.356Zm71.9,247.223c-1.6,4.537-3.149,8.858-4.623,13.2a1.791,1.791,0,0,0,.23,1.539c2.711,2.524,5.227,5.407,8.327,7.349,6.306,3.962,12.525,1.632,16.236-6.356a63.323,63.323,0,0,1-20.2-15.732ZM669.99,163.6c-1.186,2.251-1.934,4.882-3.6,6.572a19.525,19.525,0,0,0-4.573,7.737,2.005,2.005,0,0,0-.187.5,7.774,7.774,0,0,0,0,2.452c1.891,5.946,3.89,11.857,5.788,17.8.59,1.848,1.014,3.753,1.438,5.652.331,1.539,1.136,2.833,2.7,2.826,1.7,0,1.762-1.747,1.891-2.962a38.727,38.727,0,0,0,.237-6.7c-.59-7.909-1.258-15.768-2.049-23.642C671.256,170.33,670.523,166.893,669.99,163.6ZM823.33,287.992c2.157-1.5,3.9-2.876,5.752-4.019,1.345-.834,1.553-1.711,1.042-3.192-2.984-8.556-1.877-16.631,3.085-24.2.964-1.474,1.834-3,2.8-4.58a49.663,49.663,0,0,0-13.511-9.491,8.886,8.886,0,0,0,1.877,2.876A9.411,9.411,0,0,1,827.12,251c.654,4.846-1.388,8.765-4.458,12.223a3.416,3.416,0,0,0-.877,2.991c.575,4.861,1.086,9.736,1.481,14.611.207,2.272.063,4.5.063,7.169ZM699.341,376.245c-.065-.834-.057-1.23-.129-1.618a29.633,29.633,0,0,0-4.674-11.4c-3.322-4.875-6.867-9.6-10.325-14.38a21.791,21.791,0,0,1-4.451-13.892c.122-3.365.115-6.737.05-10.1a17.382,17.382,0,0,0-2.876-9.915c-3.825-5.457-5.982-11.62-8.19-17.782-.417-1.172-.985-2.286-1.488-3.43l-.46.129c.194,1.913.28,3.84.611,5.752.8,4.465,1.625,8.88,4.516,12.676a20.135,20.135,0,0,1,4.314,10.707c.244,3.286.144,6.608.3,9.908a69.532,69.532,0,0,0,.719,9.5c1.021,5.343,4.415,9.455,7.909,13.439,5.141,5.889,10.066,11.9,13.288,19.133A11.189,11.189,0,0,0,699.341,376.245Zm-67.769,33.485c-3.509-7.413-6.831-14.438-10.124-21.384l-13.338,3.293a41.7,41.7,0,0,0,6.615,10.584c3.171,3.6,6.9,6.349,11.6,7.449C627.935,410.047,629.718,409.731,631.573,409.731ZM543.3,279.421c3.358-13.388,2.4-26.769,2.2-40.266C535.532,245.72,534.231,270.153,543.3,279.421Zm169.108,52.863.431-.525c-.892-.719-1.747-1.531-2.682-2.207-3.25-2.358-6.608-4.573-9.779-7.025a10.455,10.455,0,0,1-4.242-9.11c.05-1.064,0-2.157.093-3.193a14.539,14.539,0,0,0-5.8-13.208,21.472,21.472,0,0,1-7.147-10.318c-2.157-6.421-4.408-12.827-6.637-19.234-.388-1.129-.884-2.215-1.337-3.315l-.482.129a15.867,15.867,0,0,0,.216,2.344c1.078,4.645,2.265,9.268,3.293,13.928,1.647,7.471,4.314,14.258,10.6,19.27,1.524,1.215,2.351,3.653,2.876,5.695a28.865,28.865,0,0,1,.482,6.859c0,5.292,1.977,9.657,6.515,12.439C703.21,327.539,707.869,329.811,712.413,332.284ZM634.636,156.468c-5.371,10.419-6.55,21.146-3.6,32.9.849-1.905,2.358-2.962,1.7-4.882-1.3-3.8-.245-7.075,2.236-10.066a13.558,13.558,0,0,1,6.061-3.825,43.209,43.209,0,0,0,4.487-2.215A35.9,35.9,0,0,0,634.636,156.468ZM798.517,358.651a91.952,91.952,0,0,0-8.98,19.594c6.32.719,13.661-3.085,16.61-8.42a4.9,4.9,0,0,0-.086-5.357c-1.776-2.811-4.5-4.372-7.543-5.817Zm-155.6-3.6-25.073,11.821,4.07,9.556a64.663,64.663,0,0,0,21-21.362Zm-78.54-18.213c5.911,0,8.966-2.481,11.2-6.2a1.438,1.438,0,0,0-.137-1.345,18.387,18.387,0,0,0-8.139-5.17c-4.314-1.143-7.449.532-8.93,4.76a20.646,20.646,0,0,0-.927,4.127,1.811,1.811,0,0,0,.719,1.524c2.438.992,4.926,1.834,6.22,2.3Zm21.384,6.795c-5.213,2.085-7.233,6.917-5.4,12.533,1.956,5.961,7.19,9.139,12.986,7.7A81.216,81.216,0,0,0,585.764,343.638ZM558.21,220.49a40.676,40.676,0,0,1,16.113-2.826,13.923,13.923,0,0,0-2.157-.654c-7.334-2.056-10.642-9.484-7.543-17.214a8.744,8.744,0,0,0,.1-5.306C558.153,199.415,554.874,212.408,558.21,220.49Zm189.7,30.4c4.659.611,9.347,1.51,14.086,1.726,2.459.115,5.271-.165,6.471-3.408a7.794,7.794,0,0,1,5.788-4.782c1.438-.36,2.876-.841,4.314-1.273-10.87-2-24.849.259-30.657,7.737ZM591.76,342.638c2.653,6.745,5.292,13.431,8.01,20.32l9.29-3.437c-2.265-3.983-4.077-7.845-6.515-11.26A13.756,13.756,0,0,0,591.76,342.638ZM657.307,290.2a4.308,4.308,0,0,0-.367-1.05c-2.819-4.213-5.594-8.463-8.557-12.576-.539-.719-1.862-.928-3.142-1.517.079.834.079,1.179.151,1.51,1.438,6.119-.439,11.31-4.6,15.819-2.452,2.639-1.258,5.8-1.553,8.758,3.092-8.535,9.7-11.073,18.069-10.936Zm97.069,86.176.3-.46c-1.74-1.1-3.466-2.207-5.213-3.279-4.666-2.876-9.491-5.551-13.237-9.7a59.571,59.571,0,0,0-16.574-12.554,26.865,26.865,0,0,1-2.747-1.611c-5.321-3.66-11.2-6.68-14.452-12.7a.977.977,0,0,0-.338-.4q-1.079-.55-2.157-1.057a10.153,10.153,0,0,0,.762,1.977,25.69,25.69,0,0,0,2.286,2.934,76.5,76.5,0,0,0,17.142,14.438,69.254,69.254,0,0,1,11.289,8.5,60.115,60.115,0,0,0,17.81,11.677c1.69.741,3.394,1.5,5.105,2.243Zm-152.937-4.6,3.344,11.5,12.756-4.12c-1.69-3.861-3.171-7.233-4.659-10.62Zm-24.31-158.186c1.337-1.1,2.811-2.358,4.314-3.552a1.666,1.666,0,0,0,.5-2.38,87.565,87.565,0,0,1-3.444-8.887c-1.043-3.358-1.747-6.816-2.66-10.462-1.941.769-3.876,1.6-5.86,2.3a2.82,2.82,0,0,0-1.992,3.286c.108,1.6-.28,3.293,1.913,4.228a10.4,10.4,0,0,1,6.723,9.57c.129,2.143.359,4.285.489,5.882Zm45.881-70.932c3.6,1.532,7.018,2.984,10.44,4.386a1.179,1.179,0,0,0,1.035-.23c1.373-1.366,2.689-2.783,4.062-4.228-3.653-3.8-3.969-8.053-1.373-13.007-6.759,2.725-10.857,7.5-14.186,13.065Zm88.613,13.036,4.508-10.936c-3.782-2.366-12.835-3.8-16.308-1.783a27.437,27.437,0,0,0,11.8,12.72ZM659.572,399.8c-3.279,6.126-2.524,16.077,1.488,20.694,7.2-4.94,7.442-14.409-1.488-20.686Zm-18.047,16.538c2.661,5.076,8.628,8.348,13.453,6.788a79.735,79.735,0,0,1-3.042-8.585,59.044,59.044,0,0,1-.956-7.672Zm62.527-280.061a2.148,2.148,0,0,0-.173-.568c-4.314-6.047-.209-13.712,6.018-15.028a12.829,12.829,0,0,0,2.7-1.337c-5.443-3.379-10.325-2.157-13.194,3.171a17.776,17.776,0,0,0-2.114,8.679c0,2.013.266,4.019.41,6.011Zm3.7,0,10.21,2.617c.23-2.934.568-5.788.647-8.628a13.2,13.2,0,0,0-2.373-8c-.82-1.186-1.841-1.064-2.97-.755a1.607,1.607,0,0,0-1.194,2.135,11.95,11.95,0,0,1-2.351,9.16,39.048,39.048,0,0,0-1.97,3.473Zm-82.271,144.05c3.933,5.033,7.808,10.066,11.785,15.1a5.2,5.2,0,0,0-.388-1.92c-3.926-5.752-1.258-12.187,3.128-15.955.827-.719,1.682-1.373,2.876-2.344C636.211,275.445,630.739,277.926,625.483,280.327Zm59.162-13.309.381-.237a3.475,3.475,0,0,0-.18-.59c-3.257-6.788-4.774-14.043-5.824-21.434-.719-4.933-2.272-9.5-5.874-13.209-2.466-2.538-4.746-5.271-7.118-7.909a8.21,8.21,0,0,0-.978-.805l-.388.244a5.394,5.394,0,0,0,.453,1.553c1.273,1.9,2.624,3.739,3.926,5.616,1.762,2.56,3.962,4.94,5.141,7.744a52.432,52.432,0,0,1,2.783,10.555,45.485,45.485,0,0,0,6.011,16.135C683.487,265.494,684.083,266.242,684.645,267.018Zm153.708-50.21c.446,1.366.5,2.718,1.2,3.487,3.458,3.818,3.264,9.57.144,13.7-1.309,1.74-2.66,3.444-4.07,5.263l4.894,5.472C847.175,235.4,846.255,221.964,838.353,216.808Zm-142.779,40.2h-.511a6.882,6.882,0,0,0-.309,1.783c.41,4.573.719,9.218,3.537,13.108s4.17,8.075,2.955,12.942c-.561,2.272-.266,4.7,1.841,6.3a11.4,11.4,0,0,1,4.458,8.672,48.286,48.286,0,0,0,.784,5.069c.2,1.05.54,2.078.813,3.106h.482a5.363,5.363,0,0,0,.381-1.6,44.878,44.878,0,0,0-.87-8.024c-.69-2.567-1.589-5.357-3.351-7.061a7.339,7.339,0,0,1-2.251-7.607,12.827,12.827,0,0,0-2.236-10.749c-.719-.949-1.23-2.028-1.9-3a16.953,16.953,0,0,1-2.919-8.24C696.329,260.144,695.883,258.584,695.574,257.009Zm122.364-3.458a51.482,51.482,0,0,1,2.373-4.961c1.539-2.5.92-4.688-.906-6.522a12.893,12.893,0,0,0-4.422-3.02,42.763,42.763,0,0,0-7.054-1.539,13.821,13.821,0,0,0-2.5,0c5.623,4.2,9.462,9.613,12.51,16.042Zm-2.157,48.592c-6.406,5.033-11.7,18.839-9.434,24.353,6.55-6.737,8.355-15.236,9.419-24.353ZM666.626,321.067l-.431.309c.345.669.719,1.316,1.028,2.006a68.532,68.532,0,0,1,2.876,7.19c1.6,5.537.611,10.4-4.25,14.057-.755.568-1.438,1.258-2.157,1.841-3.631,2.876-5.472,6.874-7.1,11.023a6.93,6.93,0,0,0-.223,1.568,3.932,3.932,0,0,0,1.488-1.639,27.272,27.272,0,0,1,8.628-9.9c.633-.431,1.2-.956,1.8-1.438a12.985,12.985,0,0,0,4.789-13.582A23.354,23.354,0,0,0,666.626,321.067ZM646.493,128.591a48.314,48.314,0,0,1-1.6,5.961,45.256,45.256,0,0,1-2.876,5.256c2.933-.949,5.7-2.236,8.628-2.689s6.04-.1,9.009-.1c-2.351-4.623-9.009-8.894-13.151-8.456Zm166.7,212.545c.64.525,1.021.892,1.438,1.194,4.53,3.142,9.29,3.926,14.309,1.244a1.812,1.812,0,0,0,.863-1.438,5.961,5.961,0,0,0-4.954-4.674c-4.393-.712-7.988,1.086-11.648,3.645ZM691.375,208.345l-.719-.2c-.8,1.747-1.539,3.523-2.394,5.235-3.056,6.119-3.523,12.223-.309,18.486a12.562,12.562,0,0,1,1.028,7.428c-.237,1.985-.575,3.962-.827,5.954a23.355,23.355,0,0,0,0,2.423,7.16,7.16,0,0,0,.87-1.165c2.063-5.688,4.063-11.353,1.143-17.415a15.5,15.5,0,0,1-1.294-10.009c.417-2.013,1.007-3.991,1.488-6C690.706,211.509,691.029,209.927,691.375,208.345Zm148.364,48.836c-3.775,6.22-6.608,12.389-3.293,19.629C841.779,271.455,843.4,262.51,839.739,257.182ZM693.417,340.431h-.676a9.687,9.687,0,0,0,.058,3.135,51.1,51.1,0,0,0,3.056,6.881c1.582,2.876,3.4,5.652,5.134,8.463,2.876,4.71,5.752,9.426,8.722,14.115a9.239,9.239,0,0,0,1.625,1.546l.5-.352c-.331-1.028-.611-2.085-1.021-3.092-2.366-5.853-6.27-10.785-9.685-16.006-2.79-4.264-6.306-8.154-7.133-13.467A4.9,4.9,0,0,0,693.417,340.431ZM725.91,143.985l10.419-7.14c-4.789-.324-7.859-2.819-9.98-6.723-.719,3.674-1.179,7.111-1.9,10.483-.345,1.654-.193,2.761,1.458,3.38ZM731.245,162l.525-.6-5.7-10.117-6.709,8.377ZM686.068,366.409l.381-.453c-2.6-3.308-5.616-6.09-9.9-7.118a9.23,9.23,0,0,0-3.142-.165c-4.868.6-7.909,7.19-6.385,12.943.309-.719.546-1.237.719-1.754.489-1.395.87-2.826,1.438-4.178,1.589-3.761,4.278-5.069,8.139-3.768a41.5,41.5,0,0,1,5.573,2.646C684,365.093,685.018,365.784,686.068,366.409Zm28.042-97.86.482.18c.5-.719,1.05-1.337,1.5-2.056a17.63,17.63,0,0,1,11.541-8.1c3.494-.791,6.881-2.056,10.3-3.164a8.842,8.842,0,0,0,1.654-.978l-.208-.633c-.913.151-1.848.245-2.747.46-3.257.762-6.471,1.611-9.764,2.337-5.99,1.337-10.5,4.429-12.583,10.44a6.542,6.542,0,0,0-.151,1.546ZM700.7,239.608c.244-.719.345-.978.41-1.244a66.549,66.549,0,0,1,1.56-6.874,26.419,26.419,0,0,1,9.268-13.072,13.287,13.287,0,0,0,1.769-1.927c-6.637,1.294-16.135,11.677-12.986,23.117Zm32.45-59.154c-6.313,2.265-8.118,12.094-5.45,15.819a44.791,44.791,0,0,0,5.472-15.819ZM592.106,209.4l5.752,8.053a15.394,15.394,0,0,1,5.033-10.023l-.23-.5Zm72.4,126.434c-5.752-1.28-15.991,7.392-16.451,13.784C653.755,345.133,656.746,337.655,664.5,335.836Zm98.917,44.414a88.534,88.534,0,0,0,15.869,7.909c.453-1.208.813-2.157,1.122-2.984ZM561.432,229.212l5.033,7.341c1-3.121,1.855-5.824,2.876-8.923Zm28.926-6.975-4.9-7.665-4.71,4.235Zm-36.483-4.587-.561-.094-.633,5.609C556.111,221.482,553.3,219.332,553.875,217.65Z" transform="translate(-533.213 -109.763)" fill="#b3c1b9"></path><g data-type="innerShadowGroup"><g id="Path_128190-2" data-name="Path 128190" transform="translate(3235.281 -2410.837)" fill="#fff"><path d="M -3109.6484375 2659.9521484375 L -3112.59326171875 2656.984130859375 L -3157.110595703125 2612.116943359375 L -3159.9951171875 2609.209716796875 L -3160.011962890625 2605.114501953125 L -3160.2744140625 2541.262451171875 L -3160.29150390625 2537.076416015625 L -3157.3212890625 2534.126220703125 L -3112.432861328125 2489.54345703125 L -3109.508056640625 2486.638671875 L -3105.385986328125 2486.638671875 L -3041.926025390625 2486.638671875 L -3037.79248046875 2486.638671875 L -3034.865234375 2489.55712890625 L -2990.085693359375 2534.20556640625 L -2987.16357421875 2537.119384765625 L -2987.146484375 2541.245849609375 L -2986.885009765625 2604.7705078125 L -2986.867919921875 2608.913818359375 L -2989.786376953125 2611.85498046875 L -3034.390380859375 2656.8095703125 L -3037.312744140625 2659.7548828125 L -3041.461669921875 2659.766357421875 L -3105.46728515625 2659.94091796875 L -3109.6484375 2659.9521484375 Z" stroke="none"></path><path d="M -3105.385986328125 2496.638671875 L -3150.2744140625 2541.221435546875 L -3150.011962890625 2605.073486328125 L -3105.49462890625 2649.94091796875 L -3041.489013671875 2649.766357421875 L -2996.885009765625 2604.811767578125 L -2997.146484375 2541.287109375 L -3041.926025390625 2496.638671875 L -3105.385986328125 2496.638671875 M -3105.385986328125 2476.638671875 L -3041.926025390625 2476.638671875 C -3036.6318359375 2476.638671875 -3031.5537109375 2478.73779296875 -3027.8046875 2482.475830078125 L -2983.025146484375 2527.124267578125 C -2979.28173828125 2530.8564453125 -2977.16845703125 2535.9189453125 -2977.146728515625 2541.204833984375 L -2976.88525390625 2604.7294921875 C -2976.86328125 2610.03515625 -2978.95068359375 2615.132080078125 -2982.687744140625 2618.8984375 L -3027.291748046875 2663.85302734375 C -3031.033447265625 2667.624267578125 -3036.121826171875 2669.751708984375 -3041.4345703125 2669.766357421875 L -3105.440185546875 2669.94091796875 C -3110.828857421875 2669.976318359375 -3115.923828125 2667.82568359375 -3119.692138671875 2664.027587890625 L -3164.20947265625 2619.16015625 C -3167.90625 2615.434326171875 -3169.990234375 2610.404296875 -3170.01171875 2605.15576171875 L -3170.274169921875 2541.3037109375 C -3170.296142578125 2535.947265625 -3168.168701171875 2530.8056640625 -3164.3681640625 2527.031005859375 L -3119.479736328125 2482.4482421875 C -3115.73291015625 2478.72705078125 -3110.666748046875 2476.638671875 -3105.385986328125 2476.638671875 Z" stroke="none"></path></g><g transform="matrix(1, 0, 0, 1, 0, 0.26)" filter="url(#Path_128190)"><g id="Path_128190-3" data-name="Path 128190" transform="translate(3235.28 -2411.1)" fill="#fff"><path d="M -3109.6484375 2659.9521484375 L -3112.59326171875 2656.984130859375 L -3157.110595703125 2612.116943359375 L -3159.9951171875 2609.209716796875 L -3160.011962890625 2605.114501953125 L -3160.2744140625 2541.262451171875 L -3160.29150390625 2537.076416015625 L -3157.3212890625 2534.126220703125 L -3112.432861328125 2489.54345703125 L -3109.508056640625 2486.638671875 L -3105.385986328125 2486.638671875 L -3041.926025390625 2486.638671875 L -3037.79248046875 2486.638671875 L -3034.865234375 2489.55712890625 L -2990.085693359375 2534.20556640625 L -2987.16357421875 2537.119384765625 L -2987.146484375 2541.245849609375 L -2986.885009765625 2604.7705078125 L -2986.867919921875 2608.913818359375 L -2989.786376953125 2611.85498046875 L -3034.390380859375 2656.8095703125 L -3037.312744140625 2659.7548828125 L -3041.461669921875 2659.766357421875 L -3105.46728515625 2659.94091796875 L -3109.6484375 2659.9521484375 Z" stroke="none"></path><path d="M -3105.385986328125 2496.638671875 L -3150.2744140625 2541.221435546875 L -3150.011962890625 2605.073486328125 L -3105.49462890625 2649.94091796875 L -3041.489013671875 2649.766357421875 L -2996.885009765625 2604.811767578125 L -2997.146484375 2541.287109375 L -3041.926025390625 2496.638671875 L -3105.385986328125 2496.638671875 M -3105.385986328125 2476.638671875 L -3041.926025390625 2476.638671875 C -3036.6318359375 2476.638671875 -3031.5537109375 2478.73779296875 -3027.8046875 2482.475830078125 L -2983.025146484375 2527.124267578125 C -2979.28173828125 2530.8564453125 -2977.16845703125 2535.9189453125 -2977.146728515625 2541.204833984375 L -2976.88525390625 2604.7294921875 C -2976.86328125 2610.03515625 -2978.95068359375 2615.132080078125 -2982.687744140625 2618.8984375 L -3027.291748046875 2663.85302734375 C -3031.033447265625 2667.624267578125 -3036.121826171875 2669.751708984375 -3041.4345703125 2669.766357421875 L -3105.440185546875 2669.94091796875 C -3110.828857421875 2669.976318359375 -3115.923828125 2667.82568359375 -3119.692138671875 2664.027587890625 L -3164.20947265625 2619.16015625 C -3167.90625 2615.434326171875 -3169.990234375 2610.404296875 -3170.01171875 2605.15576171875 L -3170.274169921875 2541.3037109375 C -3170.296142578125 2535.947265625 -3168.168701171875 2530.8056640625 -3164.3681640625 2527.031005859375 L -3119.479736328125 2482.4482421875 C -3115.73291015625 2478.72705078125 -3110.666748046875 2476.638671875 -3105.385986328125 2476.638671875 Z" stroke="none"></path></g></g><g id="Path_128190-4" data-name="Path 128190" transform="translate(3235.281 -2410.837)" fill="none" stroke-linecap="round" stroke-linejoin="round"><path d="M -3109.6484375 2659.9521484375 L -3112.59326171875 2656.984130859375 L -3157.110595703125 2612.116943359375 L -3159.9951171875 2609.209716796875 L -3160.011962890625 2605.114501953125 L -3160.2744140625 2541.262451171875 L -3160.29150390625 2537.076416015625 L -3157.3212890625 2534.126220703125 L -3112.432861328125 2489.54345703125 L -3109.508056640625 2486.638671875 L -3105.385986328125 2486.638671875 L -3041.926025390625 2486.638671875 L -3037.79248046875 2486.638671875 L -3034.865234375 2489.55712890625 L -2990.085693359375 2534.20556640625 L -2987.16357421875 2537.119384765625 L -2987.146484375 2541.245849609375 L -2986.885009765625 2604.7705078125 L -2986.867919921875 2608.913818359375 L -2989.786376953125 2611.85498046875 L -3034.390380859375 2656.8095703125 L -3037.312744140625 2659.7548828125 L -3041.461669921875 2659.766357421875 L -3105.46728515625 2659.94091796875 L -3109.6484375 2659.9521484375 Z" stroke="none"></path><path d="M -3105.385986328125 2496.638671875 L -3150.2744140625 2541.221435546875 L -3150.011962890625 2605.073486328125 L -3105.49462890625 2649.94091796875 L -3041.489013671875 2649.766357421875 L -2996.885009765625 2604.811767578125 L -2997.146484375 2541.287109375 L -3041.926025390625 2496.638671875 L -3105.385986328125 2496.638671875 M -3105.385986328125 2476.638671875 L -3041.926025390625 2476.638671875 C -3036.6318359375 2476.638671875 -3031.5537109375 2478.73779296875 -3027.8046875 2482.475830078125 L -2983.025146484375 2527.124267578125 C -2979.28173828125 2530.8564453125 -2977.16845703125 2535.9189453125 -2977.146728515625 2541.204833984375 L -2976.88525390625 2604.7294921875 C -2976.86328125 2610.03515625 -2978.95068359375 2615.132080078125 -2982.687744140625 2618.8984375 L -3027.291748046875 2663.85302734375 C -3031.033447265625 2667.624267578125 -3036.121826171875 2669.751708984375 -3041.4345703125 2669.766357421875 L -3105.440185546875 2669.94091796875 C -3110.828857421875 2669.976318359375 -3115.923828125 2667.82568359375 -3119.692138671875 2664.027587890625 L -3164.20947265625 2619.16015625 C -3167.90625 2615.434326171875 -3169.990234375 2610.404296875 -3170.01171875 2605.15576171875 L -3170.274169921875 2541.3037109375 C -3170.296142578125 2535.947265625 -3168.168701171875 2530.8056640625 -3164.3681640625 2527.031005859375 L -3119.479736328125 2482.4482421875 C -3115.73291015625 2478.72705078125 -3110.666748046875 2476.638671875 -3105.385986328125 2476.638671875 Z" stroke="none" fill="#fff"></path></g></g><g transform="matrix(1, 0, 0, 1, 0, 0.26)" filter="url(#Path_128191)"><g id="Path_128191-2" data-name="Path 128191" transform="translate(3243.6 -2403.29)" fill="#fff" stroke-linecap="round" stroke-linejoin="round" opacity="0.8"><path d="M -3114.29541015625 2644.0419921875 L -3117.240234375 2641.07421875 L -3157.138427734375 2600.863525390625 L -3160.02294921875 2597.956298828125 L -3160.039794921875 2593.861083984375 L -3160.2744140625 2536.63623046875 L -3160.29150390625 2532.449951171875 L -3157.3212890625 2529.5 L -3117.09130859375 2489.54345703125 L -3114.16650390625 2486.638671875 L -3110.04443359375 2486.638671875 L -3053.17041015625 2486.638671875 L -3049.036865234375 2486.638671875 L -3046.10986328125 2489.55712890625 L -3005.977294921875 2529.571533203125 L -3003.054931640625 2532.4853515625 L -3003.037841796875 2536.61181640625 L -3002.80322265625 2593.544677734375 L -3002.7861328125 2597.688232421875 L -3005.70458984375 2600.62939453125 L -3045.6806640625 2640.91845703125 L -3048.60302734375 2643.86376953125 L -3052.752197265625 2643.875 L -3110.114501953125 2644.03076171875 L -3114.29541015625 2644.0419921875 Z" stroke="none"></path><path d="M -3110.04443359375 2496.638671875 L -3150.2744140625 2536.59521484375 L -3150.039794921875 2593.820068359375 L -3110.1416015625 2634.03076171875 L -3052.779296875 2633.875 L -3012.80322265625 2593.5859375 L -3013.037841796875 2536.653076171875 L -3053.17041015625 2496.638671875 L -3110.04443359375 2496.638671875 M -3110.04443359375 2476.638671875 L -3053.17041015625 2476.638671875 C -3047.876220703125 2476.638671875 -3042.798095703125 2478.73779296875 -3039.049072265625 2482.475830078125 L -2998.91650390625 2522.489990234375 C -2995.17333984375 2526.222412109375 -2993.059814453125 2531.28466796875 -2993.0380859375 2536.570556640625 L -2992.803466796875 2593.50341796875 C -2992.781494140625 2598.809326171875 -2994.868896484375 2603.906494140625 -2998.60595703125 2607.6728515625 L -3038.58203125 2647.9619140625 C -3042.323974609375 2651.73291015625 -3047.412353515625 2653.860595703125 -3052.724853515625 2653.875 L -3110.087158203125 2654.03076171875 C -3115.4560546875 2654.03271484375 -3120.570556640625 2651.91552734375 -3124.3388671875 2648.11767578125 L -3164.237060546875 2607.906982421875 C -3167.93408203125 2604.180908203125 -3170.01806640625 2599.15087890625 -3170.03955078125 2593.902099609375 L -3170.274169921875 2536.67724609375 C -3170.296142578125 2531.32080078125 -3168.168701171875 2526.179443359375 -3164.3681640625 2522.405029296875 L -3124.13818359375 2482.448486328125 C -3120.3916015625 2478.72705078125 -3115.3251953125 2476.638671875 -3110.04443359375 2476.638671875 Z" stroke="none" fill="#fff"></path></g></g><g id="Monk-1" transform="translate(111.316 94.21)"><path id="Path_4871" data-name="Path 4871" d="M670.838,163.935a35.492,35.492,0,0,1-10.787-.174c-3.252-.558-11.214-1.922-16.529-8-1.861-2.129-1.378-2.526-5.219-10.787-5.208-11.2-6.476-11.289-7.655-15.659-2.466-9.141.741-17.433,1.566-19.486,5.265-13.1,17.273-18,19.312-18.79,2.286-.888,14.358-5.582,26.62.7.92.471,11.308,5.964,14.615,16.181.706,2.181.578,3,2.088,8.177,1.783,6.116,2.735,7.628,3.828,12,1.15,4.606,1.8,7.213,1.566,10.613-.609,8.819-6.609,14.793-8,16.181a28.906,28.906,0,0,1-11.483,6.959,38.728,38.728,0,0,0,7.917-3.915q.166.262.348.522a15.523,15.523,0,0,0,6.612,5.22,14.472,14.472,0,0,0,9.917-4.35,3.2,3.2,0,0,0,1.74,1.74,4.339,4.339,0,0,1-1.044-.7,6,6,0,0,1-1.547-4.938,10.851,10.851,0,0,1,.329-2.021c.128-.49.817-3.125,2.088-3.306.135-.019.217,0,1.914,0h.7a15.852,15.852,0,0,1,1.74-4.7c1.343-2.364,2.3-2.568,2.61-2.61a1.764,1.764,0,0,1,1.392.348,1.867,1.867,0,0,1,.522,1.566,5.327,5.327,0,0,1,1.566-1.914c.52-.392,1.167-.88,1.74-.7.835.268,1,1.8,1.044,2.262a7.674,7.674,0,0,1-1.914,5.394,2.306,2.306,0,0,1,1.74.7,2.408,2.408,0,0,1,0,2.958l-1.74,1.74a2.208,2.208,0,0,1,2.262-1.044c.951.3,1.171,1.631,1.218,1.914.312,1.882-1.037,3.521-2.435,5.22-1.163,1.412-1.777,2.158-2.958,2.61a6.018,6.018,0,0,1-4.35-.174l2.784.522a40.628,40.628,0,0,1-1.218,5.22c-.96,3.158-2.188,7.194-5.393,10.961a22.988,22.988,0,0,1-7.481,5.741L654.4,191.685l1.392-3.306a4,4,0,0,0-2.262.522,4.209,4.209,0,0,0-1.914,2.784,17.909,17.909,0,0,1-5.915,0c-.964-.163-8.1-1.49-12.179-8a17.067,17.067,0,0,1-2.262-5.741,8.015,8.015,0,0,1-4.524-.522c-.372-.163-4.416-2.014-4.523-5.915a6.98,6.98,0,0,1,2.784-5.394l-4.176-5.046a1.908,1.908,0,0,1,2.958-2.088,3.21,3.21,0,0,1,1.566-1.044,4.063,4.063,0,0,1,3.306.87c1.225.891,1.147,1.649,3.132,3.654a3.242,3.242,0,0,0,1.218.87c1.035.384,1.6-.138,2.436,0,1.522.252,2.533,2.468,2.784,4a6.237,6.237,0,0,1-.87,4.176l.87-2.088c.856.355,2.111.854,3.654,1.392,3.426,1.195,4.17,1.151,4.7,1.044,1.139-.232,1.919-.967,3.479-2.436,1.8-1.7,2.005-2.537,3.654-3.654a12.989,12.989,0,0,1,2.436-1.218c4.287-1.625,10.427-.543,11.483-.348l3.132-.174Z" transform="translate(-620.736 -88.515)" fill="#f19888" stroke="#9c1801" stroke-miterlimit="10" stroke-width="1"></path><path id="Path_4872" data-name="Path 4872" d="M766.514,584.208c-.462-.3-1.843.7-2.61,1.914a5.779,5.779,0,0,0-.7,4,11.1,11.1,0,0,0-6.089,1.218,10.433,10.433,0,0,0-4.872,5.22c-.8,2.027-.588,3.787-.174,7.307a38.664,38.664,0,0,0,1.218,6.089,3.494,3.494,0,0,0-1.392,1.914c-.388,1.559.7,2.98,1.218,3.654,2.942,3.84,9.347,5.138,14.615,4.524a21.1,21.1,0,0,0,4.523-1.044,17.15,17.15,0,0,0,17.4-.87l16.876-.87c.91.155,2.026.335,3.306.522,2.029.3,2.78.361,3.654,0a3.073,3.073,0,0,0,1.392-1.044,3.268,3.268,0,0,0,.522-1.914c.047-2.193.031-4.1,0-5.567a91.448,91.448,0,0,0,1.044-12.7c.1-8.365-1.04-10.564-1.74-11.657a13.812,13.812,0,0,0-7.481-5.393,21.048,21.048,0,0,0,.348-6.785c-.32-2.752-.942-3.034-1.044-5.568-.125-3.111.778-3.606.348-6.437-.17-1.117-.569-3.747-2.262-4.35a2.557,2.557,0,0,0-1.566,0l-2.958-2.784-5.742,3.132a17.454,17.454,0,0,1-.348,5.046c-.817,3.715-2.494,5.317-4.7,9.047-3.67,6.214-2.075,6.946-5.046,10.787a18.661,18.661,0,0,1-8.873,6.437c-3.414,1.076-8.123,1.293-9.047-.522C765.714,586.284,767.053,584.563,766.514,584.208Z" transform="translate(-732.158 -484.17)" fill="#bdd1c6" stroke="#9c1801" stroke-miterlimit="10" stroke-width="2"></path><path id="Path_4873" data-name="Path 4873" d="M776.716,826.946A39.482,39.482,0,0,1,758.1,812.853a48.636,48.636,0,0,0,5.741,12.875,21.577,21.577,0,0,1-6.089-6.437,17.375,17.375,0,0,0,1.74,5.742,2.982,2.982,0,0,1-1.392-.522,3.136,3.136,0,0,1-1.044-1.392,25.916,25.916,0,0,1-1.914-6.264c-.467-3.88-.7-5.82,0-7.655a9.863,9.863,0,0,1,4.524-5.046c.832-.42,3.467-1.751,5.045-.522a2.933,2.933,0,0,1,1.044,2.61c-.25,1.768-2.252,1.961-2.958,3.828-.53,1.4.033,2.794.522,4,1.127,2.783,3.022,4.275,6.089,6.785C770.961,822.127,773.476,824.2,776.716,826.946Z" transform="translate(-734.704 -696.461)" fill="#fefff4"></path><path id="Path_4874" data-name="Path 4874" d="M1023.43,748.757c1.491-1.826,2.8-3.353,3.828-4.523,4.109-4.687,6.164-7.031,7.133-7.655a6.978,6.978,0,0,0,2.088-2.088,3.651,3.651,0,0,0,.7-2.262,1.923,1.923,0,0,0-.7-1.566,1.634,1.634,0,0,0-1.218-.174,11.608,11.608,0,0,0-2.436.87,12.785,12.785,0,0,0-5.568,5.567,9.389,9.389,0,0,1,1.74-1.392c.823-.511,1.971-1.044,2.088-.87.086.128-.418.6-.7.87a22.535,22.535,0,0,0-2.958,4.176A49.177,49.177,0,0,0,1023.43,748.757Z" transform="translate(-963.324 -634.626)" fill="#f5fff8"></path><path id="Path_4875" data-name="Path 4875" d="M1040.91,562.525a10.937,10.937,0,0,1,1.392,1.566,6.349,6.349,0,0,1,1.218,2.262,5.041,5.041,0,0,1,0,2.436,19.387,19.387,0,0,0,1.392-2.958,14.842,14.842,0,0,0,1.043-4.7c.023-.506.013-1.624,0-1.915a11.223,11.223,0,0,1-.931.7c-.325.188-1.214.8-1.689,1.047A21.7,21.7,0,0,1,1040.91,562.525Z" transform="translate(-978.195 -489.454)" fill="#7f9284" stroke="#9c1801" stroke-miterlimit="10" stroke-width="1"></path><path id="Path_4876" data-name="Path 4876" d="M1044.91,615.349a15.771,15.771,0,0,1-.522-3.654,18,18,0,0,1,4.176-11.483,22.155,22.155,0,0,1-3.654,15.137Z" transform="translate(-981.15 -523.836)" fill="#7f9284" stroke="#9c1801" stroke-miterlimit="10" stroke-width="1"></path><path id="Path_4877" data-name="Path 4877" d="M1064.159,566.374a11.416,11.416,0,0,1,1.218,2.61c.646,2.023.706,4.214-.522,9.221a69.893,69.893,0,0,1-2.958,9.221,12.642,12.642,0,0,1,4.7-2.784,12.147,12.147,0,0,1,2.389-.382,10.629,10.629,0,0,1,1.439.034,13.162,13.162,0,0,0,.869-4.7c-.009-2.077-.537-3.115-.87-5.742a27.128,27.128,0,0,1-.174-4.871,7.482,7.482,0,0,0-1.392-7.133l-4.871-2.436Q1064.072,562.894,1064.159,566.374Z" transform="translate(-996.049 -489.128)" fill="#7f9284" stroke="#9c1801" stroke-miterlimit="10" stroke-width="1"></path><path id="Path_4878" data-name="Path 4878" d="M1107.586,728.3a9.205,9.205,0,0,1,1.566,2.262,10.64,10.64,0,0,1,.87,5.567,44.672,44.672,0,0,1-1.566,9.047,31.827,31.827,0,0,0-.522,13.919,19.59,19.59,0,0,1,4.7,4.35,11.35,11.35,0,0,1-3.48,2.088c1.122.167,2.406.346,3.828.522,2.185.27,2.966.318,3.653-.174a3.132,3.132,0,0,0,1.044-1.74c.686-2.047.178-3.4.174-5.915a30.8,30.8,0,0,1,.348-3.654c.457-4.111.8-7.236.87-10.091.11-4.713.165-7.069-1.044-9.569a11.681,11.681,0,0,0-6.437-6.089A10.284,10.284,0,0,0,1107.586,728.3Z" transform="translate(-1034.779 -632.785)" fill="#7f9284" stroke="#9c1801" stroke-miterlimit="10" stroke-width="1"></path><path id="Path_4879" data-name="Path 4879" d="M1023.132,856.655h0a4.772,4.772,0,0,1,.87,3.828,4.332,4.332,0,0,1-1.044,1.914,2.392,2.392,0,0,1,.174,1.218,2.483,2.483,0,0,1-.87,1.566v.522l2.262-.174a7.765,7.765,0,0,0,.87-2.436,6.784,6.784,0,0,0-.7-4.7,6.067,6.067,0,0,0-1.566-1.74" transform="translate(-962.33 -742.003)" fill="#7f9284" stroke="#9c1801" stroke-miterlimit="10" stroke-width="1"></path><path id="Path_4880" data-name="Path 4880" d="M762.183,898.618a9.767,9.767,0,0,1-6.263-4.872,3.081,3.081,0,0,0-1.392,1.566c-.536,1.512.6,3.048,1.044,3.654,1.593,2.16,3.986,2.8,7.133,3.654a19.642,19.642,0,0,0,6.785.87,18.158,18.158,0,0,0,5.046-1.044,16,16,0,0,0,4.176,1.566,16.216,16.216,0,0,0,6.959,0,12.93,12.93,0,0,0,5.916-2.088,3.945,3.945,0,0,1-.87-1.044,4,4,0,0,1-.522-1.914,6.673,6.673,0,0,1-4.524,1.914l1.218,1.044-.87.7-11.135-3.48a70.072,70.072,0,0,1-14.441-12.179,18.325,18.325,0,0,0,5.567,10.961,12,12,0,0,1-2.784-1.044,12.117,12.117,0,0,1-3.654-2.958A7.007,7.007,0,0,0,762.183,898.618Z" transform="translate(-734.438 -767.785)" fill="#7f9284" stroke="#9c1801" stroke-miterlimit="10" stroke-width="1"></path><path id="Path_4881" data-name="Path 4881" d="M869.564,716.291a15.847,15.847,0,0,0,6.611.348c.785-.128,3.855-.694,8-3.828a32.6,32.6,0,0,0,9.743-12.353,29.744,29.744,0,0,1-1.914,7.829l1.392.348a15.994,15.994,0,0,1-1.044,3.132,17.644,17.644,0,0,1-7.307,7.829,1.917,1.917,0,0,0,.174,1.566c.682.929,2.553.635,3.654.174,1.48-.62,2.124-1.774,3.654-4.349.734-1.236,1.921-3.216,3.48-5.742l3.306-1.566a38.07,38.07,0,0,0-7.481,13.745L884,728.469a5.059,5.059,0,0,1,.522-2.262c.329-.658.85-1.7,1.914-1.914a2.534,2.534,0,0,1,1.914.522,3.483,3.483,0,0,0-1.914-1.044c-1.492-.224-2.742.814-3.654,1.566-2.04,1.683-4.159,3.4-6.611,5.393a7.663,7.663,0,0,1,.348-3.48,7.971,7.971,0,0,1,3.48-4.176,44.6,44.6,0,0,1-10.439-6.785Z" transform="translate(-832.424 -609.119)" fill="#7f9284" stroke="#9c1801" stroke-miterlimit="10" stroke-width="1"></path><path id="Path_4882" data-name="Path 4882" d="M862.974,601.378a24.529,24.529,0,0,0,17.746,1.914,13.683,13.683,0,0,1-.348,6.09,14.775,14.775,0,0,1-7.133,8.525,6.691,6.691,0,0,0-2.088,1.566,1.15,1.15,0,0,0-.348.7c-.022.449.341.72.7,1.218a5.925,5.925,0,0,1,.7,1.566,4.342,4.342,0,0,1-.522,3.306,11.663,11.663,0,0,1-8.351,2.61,6.638,6.638,0,0,1,.174-8.351A5.586,5.586,0,0,1,862.1,619.3c-1.561-1.922-1.351-4.4-1.218-5.741.259-2.6,1.082-3.084,1.74-5.742A17.76,17.76,0,0,0,862.974,601.378Z" transform="translate(-824.964 -524.828)" fill="#ffc2b5"></path><path id="Path_4883" data-name="Path 4883" d="M691.62,636.974a3.668,3.668,0,0,1,.174,3.132,3.524,3.524,0,0,1-1.74,1.74,12.963,12.963,0,0,0,2.61,3.48c3.343,3.153,8.673,4.7,12.7,2.958a4.948,4.948,0,0,0,2.958-2.61c.583-1.683-.436-3.389-1.218-4.7a13.79,13.79,0,0,0-4.7-4.524,20.362,20.362,0,0,0-5.22-2.436,5.246,5.246,0,0,1-2.61,2.61,5.156,5.156,0,0,1-2.958.348Z" transform="translate(-679.708 -552.594)" fill="#ffc2b5"></path><path id="Path_4884" data-name="Path 4884" d="M707.688,98.984a14.128,14.128,0,0,0-4.176,2.958c-1.757,1.819-2.191,3.3-3.828,5.915-1.78,2.84-2.776,3.491-4.176,5.394-3.373,4.586-4.072,9.62-4.524,12.875a34.825,34.825,0,0,0,1.218,14.963,23.9,23.9,0,0,1,1.392,4.872,28.207,28.207,0,0,1,.348,5.046c.023,1.672.088,6.446.87,9.221.579,2.054,2.242,5.465,8,8.7l1.914,1.044a22.44,22.44,0,0,1-3.132-.522,21.139,21.139,0,0,1-3.654-1.218c-3.417-1.592-5.207-5.184-6.437-7.655-1.356-2.723-.762-2.626-2.436-6.437a71.352,71.352,0,0,0-3.828-7.307c-1.879-3.265-2.685-4.285-3.654-6.785a32.28,32.28,0,0,1-1.218-4c-1.8-8.025,2.12-17.2,2.436-17.92a31.551,31.551,0,0,1,24.88-19.138" transform="translate(-671.07 -97.422)" fill="#f5fff8"></path><path id="Path_4885" data-name="Path 4885" d="M738.215,94.909a33.407,33.407,0,0,1,8-.7,26.522,26.522,0,0,1,12.875,3.132,25.127,25.127,0,0,1,10.091,11.309,31.259,31.259,0,0,1,2.958,11.309c.244,4.1.174,6.089.174,6.089a16.61,16.61,0,0,0,0,4c.372,1.993,1.216,2.953,2.262,4.872a24.784,24.784,0,0,1,2.436,6.263c1.159,5.7-2.463,10.806-2.958,11.483-2.239,3.062-5.75,5.472-7.829,5.915a6.813,6.813,0,0,0-2.262.87,8.007,8.007,0,0,0-1.914,1.74,20.691,20.691,0,0,1-3.132,3.132,9.159,9.159,0,0,1-6.611,1.218,9.6,9.6,0,0,1-2.958-1.044,19.982,19.982,0,0,1-4.35,1.74,21.988,21.988,0,0,1-9.047.348,20.1,20.1,0,0,1-4.523-1.218c-3.914-1.681-6.481-5.32-8.7-10.265-4.075-9.087-10.192-22.726-4.872-38.451a34.348,34.348,0,0,1,10.091-15.833A32.217,32.217,0,0,1,738.215,94.909Z" transform="translate(-701.596 -93.346)" fill="#ffc2b5"></path><path id="Path_4886" data-name="Path 4886" d="M635.705,640.054a6.133,6.133,0,0,1-1.392-1.914,2.263,2.263,0,0,1-.348-1.392c.172-.806,1.239-1.4,2.61-1.566A9.649,9.649,0,0,0,635.705,640.054Z" transform="translate(-631.97 -553.586)" fill="#ffc2b5"></path><path id="Path_4887" data-name="Path 4887" d="M642.895,614.667a1.993,1.993,0,0,1,.7-2.61,2.337,2.337,0,0,0-2.088.174,2.249,2.249,0,0,0-.87,2.436Z" transform="translate(-637.594 -533.768)" fill="#ffc2b5"></path><path id="Path_4888" data-name="Path 4888" d="M627.578,569.465a6.2,6.2,0,0,0,.174-1.392,6.675,6.675,0,0,0-.7-2.958,7.969,7.969,0,0,0-1.566-2.262,1.312,1.312,0,0,0-1.044-.174,1.393,1.393,0,0,0-.87,1.218,1.569,1.569,0,0,0,.174.87Z" transform="translate(-623.147 -491.871)" fill="#ffc2b5"></path><path id="Path_4889" data-name="Path 4889" d="M650.884,563.218l-.044-.056-3.262-4.12c-.023-.053-.19-.449,0-.7s.568-.189.7-.174c1.155.134,2.1,2.013,2.436,3.48A6.911,6.911,0,0,1,650.884,563.218Z" transform="translate(-643.495 -488.059)" fill="#ffc2b5"></path><path id="Path_4890" data-name="Path 4890" d="M680.408,593.11a4.558,4.558,0,0,0-1.74.522c-1.287.7-2.613,2.246-2.436,3.654a1.66,1.66,0,0,1,0,1.044,1.4,1.4,0,0,1-1.218.7,2.072,2.072,0,0,1-1.74-1.566,3.337,3.337,0,0,1,.87-2.784,5.372,5.372,0,0,1,3.132-2.088,4.187,4.187,0,0,1,1.914,0A4.038,4.038,0,0,1,680.408,593.11Z" transform="translate(-665.364 -517.255)" fill="#ffc2b5"></path><path id="Path_4891" data-name="Path 4891" d="M1189.938,513.154a4.042,4.042,0,0,0,1.566-1.218,4.5,4.5,0,0,0,.7-3.654,5.761,5.761,0,0,0,1.74,1.218,4.041,4.041,0,0,0,3.132.348c.194-.075,1.4-.544,1.566-1.566a2.237,2.237,0,0,0-.7-1.74c-.325-.372-.921-.89-2.958-1.392a18.671,18.671,0,0,0-3.654-.522,4.171,4.171,0,0,0-1.392,1.044,4.933,4.933,0,0,0-1.044,3.132A8,8,0,0,0,1189.938,513.154Z" transform="translate(-1104.083 -442.52)" fill="#ffc2b5"></path><path id="Path_4892" data-name="Path 4892" d="M1221.59,462.043a5.322,5.322,0,0,1,2.958.87,16.378,16.378,0,0,1,.87-2.61c.732-1.7,1.413-2.469,1.218-3.654-.032-.195-.168-1.021-.7-1.218-.641-.239-1.468.6-1.914,1.044a7.828,7.828,0,0,0-1.74,2.958A13.339,13.339,0,0,0,1221.59,462.043Z" transform="translate(-1131.906 -400.63)" fill="#ffc2b5"></path><path id="Path_4893" data-name="Path 4893" d="M1250.73,459.713c.405-1.694.824-3.208,1.218-4.524a7.719,7.719,0,0,1,1.914-3.654c.32-.309.9-.86,1.392-.7.565.19.664,1.228.7,1.566a5.654,5.654,0,0,1-1.044,3.48,9.515,9.515,0,0,1-1.914,2.262,11.031,11.031,0,0,1-2.262,1.566Z" transform="translate(-1156.697 -396.734)" fill="#ffc2b5"></path><path id="Path_4894" data-name="Path 4894" d="M1268.145,502.29a1.816,1.816,0,0,0-1.392,1.044,1.728,1.728,0,0,0-.174,1.392,1.354,1.354,0,0,0,.87.87,1.275,1.275,0,0,0,.87-.174,2.358,2.358,0,0,0,.87-.87c.358-.509.536-.763.522-1.044A1.532,1.532,0,0,0,1268.145,502.29Z" transform="translate(-1170.11 -440.529)" fill="#ffc2b5"></path><path id="Path_4895" data-name="Path 4895" d="M1271.054,533a1.672,1.672,0,0,0,0,1.218,1.717,1.717,0,0,0,1.218,1.044,1.657,1.657,0,0,0,.7,0l.7-1.218a1.943,1.943,0,0,1,.174,1.218,6.337,6.337,0,0,0,.522-1.392c.2-.813.352-1.432,0-1.914a1.449,1.449,0,0,0-1.044-.522c-.436-.014-.755.223-1.392.7C1271.438,532.493,1271.195,532.674,1271.054,533Z" transform="translate(-1173.89 -465.325)" fill="#ffc2b5"></path><path id="Path_4896" data-name="Path 4896" d="M932.309,409.14c.373.34.015.819.348,1.392.291.5.71.385.87.87a1.261,1.261,0,0,1-.174,1.044,1.024,1.024,0,0,1-.348.348c-.516.284-1.307-.1-1.74-.522a2.264,2.264,0,0,1-.522-2.262c.065-.2.3-.933.87-1.044A.87.87,0,0,1,932.309,409.14Z" transform="translate(-884.382 -361.123)" fill="none" stroke="#ffc2b5" stroke-miterlimit="10" stroke-width="1"></path><path id="Path_4897" data-name="Path 4897" d="M928.149,420.219h0a4.532,4.532,0,0,0,3.306.7c2-.493,2.976-2.806,3.306-2.61.223.133-.109,1.261-.7,2.088a3.713,3.713,0,0,1-1.74,1.392,4.014,4.014,0,0,1-3.48-.522c-.508-.328-1.129-.9-1.044-1.044.037-.064.205-.036.348,0" transform="translate(-881.961 -369.07)" fill="none" stroke="#ffc2b5" stroke-miterlimit="10" stroke-width="1"></path><path id="Path_4898" data-name="Path 4898" d="M924.633,463.418l-.348.7a1.74,1.74,0,0,1,.522-2.262.75.75,0,0,0,0,.522c.436,1.009,3.865.692,6.264-.174a11.973,11.973,0,0,0,4.35-2.784l-.522-.348a1.983,1.983,0,0,1,1.914.87,1.856,1.856,0,0,1,.174,1.392.7.7,0,0,1-.522,0,.868.868,0,0,1-.348-1.044,11.9,11.9,0,0,1-2.262,1.74,12.611,12.611,0,0,1-4.524,1.566A12.961,12.961,0,0,1,924.633,463.418Z" transform="translate(-878.793 -403.745)" fill="none" stroke="#ffc2b5" stroke-miterlimit="10" stroke-width="1"></path><path id="Path_4899" data-name="Path 4899" d="M978.3,494.139c-.1,0-.008.507-.348.87-.319.34-.652.164-1.044.522-.275.252-.482.679-.348.87s.632.089.87,0a1.694,1.694,0,0,0,1.044-1.218C978.586,494.657,978.4,494.138,978.3,494.139Z" transform="translate(-923.417 -433.595)" fill="none" stroke="#ffc2b5" stroke-miterlimit="10" stroke-width="1"></path><path id="Path_4900" data-name="Path 4900" d="M771.649,321.738a6.326,6.326,0,0,1,1.914-1.566c.889-.464,1.5-.489,1.74-1.044a1.166,1.166,0,0,0-.348-1.392c-.331-.175-.739.025-1.044.174a3.964,3.964,0,0,0-1.74,1.914,5.407,5.407,0,0,0-.522,1.914Z" transform="translate(-749.124 -283.465)" fill="none" stroke="#ffc2b5" stroke-miterlimit="10" stroke-width="1"></path><path id="Path_4901" data-name="Path 4901" d="M1019.19,254.781a6.325,6.325,0,0,0-2.473,0c-.982.2-1.473.571-2.008.291a1.167,1.167,0,0,1-.611-1.3c.146-.345.588-.448.919-.525a3.962,3.962,0,0,1,2.558.383A5.408,5.408,0,0,1,1019.19,254.781Z" transform="translate(-955.343 -228.59)" fill="none" stroke="#ffc2b5" stroke-miterlimit="10" stroke-width="1"></path><path id="Path_4902" data-name="Path 4902" d="M963.155,858.983c-.416-.017-.916.453-1.914,1.392-.3.285-.541.532-.7.7a3.821,3.821,0,0,0-1.218,0,4.533,4.533,0,0,0-1.392.522,9.586,9.586,0,0,0-3.654,4.524,13.557,13.557,0,0,0-.87,5.045,8.111,8.111,0,0,0,.87,4.35,1.545,1.545,0,0,0,.522.522,2.566,2.566,0,0,0,2.784-.522c.829-.771.844-1.882,1.566-2.088a.811.811,0,0,1,.522,0c.284.11.3.354.522.522a1.091,1.091,0,0,0,1.392-.174,1.127,1.127,0,0,0-.174-1.392s-.257-.252-1.914-.348h0a2.1,2.1,0,0,1,.522-.87,1.327,1.327,0,0,1,1.218-.174c.47.165.516.518.87.522a.778.778,0,0,0,.7-.522c.15-.5-.428-1.178-1.044-1.392a3.194,3.194,0,0,0-1.914.174h0a2.96,2.96,0,0,1,.87-1.392c.294-.177.835-.252,1.914.348.207.058.45.1.522,0,.109-.156-.207-.6-.522-.87a2.273,2.273,0,0,0-1.566-.522,4.178,4.178,0,0,0-1.218.348h0a3.51,3.51,0,0,1,.174-.7,1.611,1.611,0,0,1,1.566-.7c.613.067.769.452,1.218.348a.993.993,0,0,0,.7-.7,1.181,1.181,0,0,0-.522-1.218c-.909-.571-2.444.609-2.61.348-.092-.145.321-.6.7-.87a3.17,3.17,0,0,1,1.74-.522c.539-.02.6.09.87,0,.74-.243,1.012-1.266,1.044-1.392C965.082,860.859,964.089,859.022,963.155,858.983Z" transform="translate(-903.744 -743.982)" fill="#f19890" stroke="#9c1801" stroke-miterlimit="10" stroke-width="2"></path><path id="Path_4903" data-name="Path 4903" d="M1004.113,923.234a3.066,3.066,0,0,0-.174,1.044c.009.689.256.815.174,1.218-.136.672-.881.6-1.218,1.392-.234.548.075.694-.174,1.392a1.912,1.912,0,0,1-1.044,1.218,1.623,1.623,0,0,1-1.044,0,2.207,2.207,0,0,0,0,1.392,2.426,2.426,0,0,0,1.566,1.392c1.094.384,2.527.129,2.784-.522.143-.364-.174-.614,0-1.218.138-.477.378-.468.522-.87.326-.914-.588-1.9-.348-2.088.134-.1.488.15.522.174.469.334.408.8.7.87s.489-.4.87-.348a.649.649,0,0,1,.522.522c.039.461-.78.561-1.218,1.392a1.907,1.907,0,0,0-.174,1.392,1.7,1.7,0,0,0,1.392,1.218,1.868,1.868,0,0,0,1.74-1.218,3.88,3.88,0,0,0,0-2.088c-.023-.1-.076-.3,0-.348.113-.074.475.217.7.522a2.018,2.018,0,0,1,.348,1.566c-.125.577-.479.814-.348,1.044s.641.181.7.174a1.826,1.826,0,0,0,1.392-1.218,2.169,2.169,0,0,0-.348-1.914c.02-.151.066-.3.174-.348.221-.091.656.291.87.7.525.991-.233,2.187.174,2.436.071.044.163.029.348,0a1.534,1.534,0,0,0,1.218-.87c.114-.366-.04-.766-.348-1.566-.147-.38-.267-.6-.174-.7.116-.121.486.041.7.174a1.87,1.87,0,0,1,.7.87c.217.535.077.813.348,1.044a.854.854,0,0,0,.522.174c.04,0,.65.034.87-.348a.889.889,0,0,0,0-.7c-.134-.471-.391-.544-.522-1.044-.039-.148-.116-.439,0-.522s.335.13.87.348a1.315,1.315,0,0,0,.87.174.718.718,0,0,0,.522-.522c.043-.375-.462-.716-.7-.87a39.067,39.067,0,0,0-5.742-3.48,16.857,16.857,0,0,0-6.611-1.218A15.648,15.648,0,0,0,1004.113,923.234Z" transform="translate(-943.834 -798.49)" fill="#f19890" stroke="#9c1801" stroke-miterlimit="10" stroke-width="2"></path><path id="Path_4904" data-name="Path 4904" d="M970.533,863.8a16.6,16.6,0,0,0-.87,4.176c-.343,2.618-.269,3.215,0,3.827.077.176.7,1.547,1.566,1.566.468.01.587-.382,1.218-.348a1.839,1.839,0,0,1,1.218.522.955.955,0,0,0,.174.174.819.819,0,0,0,.7.174.743.743,0,0,0,.522-.522.812.812,0,0,0-.174-.7,1.189,1.189,0,0,0-.522-.348,3.2,3.2,0,0,0-1.484-.34c-.022,0-.063.013-.082-.008-.074-.084.226-.6.7-.87a1.433,1.433,0,0,1,1.044-.174,3.234,3.234,0,0,1,.7.348c.2.122.246.164.348.174a.744.744,0,0,0,.7-.522c.141-.491-.446-.981-.522-1.044a2.693,2.693,0,0,0-2.436-.174,1.629,1.629,0,0,1,.7-1.218,1.482,1.482,0,0,1,1.392-.174c.269.133.4.364.7.348.021,0,.273-.018.348-.174.119-.247-.3-.651-.348-.7a2.189,2.189,0,0,0-1.566-.522,9.863,9.863,0,0,0-1.218.348,3.573,3.573,0,0,1,0-.7c.142-.563.947-.708,1.392-.7a3.672,3.672,0,0,1,.87.174c.456.128.523.207.7.174a1.046,1.046,0,0,0,.7-1.044,1.173,1.173,0,0,0-.87-1.044,1.192,1.192,0,0,0-.522,0c-.511.078-.882.353-1.566.522-.072.018-.148.035-.174,0-.075-.1.278-.567.7-.87a3.123,3.123,0,0,1,1.74-.522c.418-.01.456.065.7,0a1.85,1.85,0,0,0,1.044-1.044,3.055,3.055,0,0,0-.174-2.61c-.211-.393-.516-.962-1.044-1.044-.445-.069-.825.243-1.566.87a10.336,10.336,0,0,0-1.218,1.218,2.742,2.742,0,0,0-.522,0,3.373,3.373,0,0,0-1.392.522A4.7,4.7,0,0,0,970.533,863.8Z" transform="translate(-917.386 -743.931)" fill="#fcc2b4" opacity="0.51"></path><path id="Path_4905" data-name="Path 4905" d="M712.818,439.353a2.739,2.739,0,0,0-1.392,1.392,3.45,3.45,0,0,0,.522,2.784c1.7,3.257,2.425,3.94,3.132,5.394,1.056,2.172.233,2.3,1.566,6.785,1.009,3.4,1.718,4.127,2.436,4.524a3.636,3.636,0,0,0,3.654,0,3.461,3.461,0,0,0,1.392-2.088,18.921,18.921,0,0,1-4.35-4.176,25.97,25.97,0,0,1-3.132-6.089C715.8,445.881,714.517,442.957,712.818,439.353Z" transform="translate(-697.774 -386.987)" fill="#f19888" stroke="#9c1801" stroke-miterlimit="10" stroke-width="2"></path><path id="Path_4906" data-name="Path 4906" d="M1136.2,340.939a2.57,2.57,0,0,0,1.914.348,2.411,2.411,0,0,0,1.218-.87,5.956,5.956,0,0,0,.87-4.176c-.464-4.416-1.6-6.085-1.914-8.873a14.289,14.289,0,0,1,1.044-6.959c.162-1.9-.855-3.409-2.088-3.654a2.57,2.57,0,0,0-1.914.522,23.205,23.205,0,0,1,2.088,8.873C1137.611,333.234,1134.294,339.7,1136.2,340.939Z" transform="translate(-1058.523 -282.658)" fill="#f19888" stroke="#9c1801" stroke-miterlimit="10" stroke-width="2"></path><path id="Path_4907" data-name="Path 4907" d="M755.534,931.839a3.022,3.022,0,0,0-1.044,1.218,3.662,3.662,0,0,0,.174,2.958c.261.607.854,1.638,3.219,3.045a19.826,19.826,0,0,0,6.872,2.523,20.6,20.6,0,0,0,5.655.087,23.656,23.656,0,0,0,4.872-1.044,18.367,18.367,0,0,0,4.35,1.566,16.248,16.248,0,0,0,6.959.174,15.667,15.667,0,0,0,5.22-2.088,3.956,3.956,0,0,0,1.566.174,3.656,3.656,0,0,0,2.784-1.566,3.445,3.445,0,0,0,0-3.48l.522,1.566,1.392-.7a2.633,2.633,0,0,0-1.392,1.566,2.28,2.28,0,0,0,.87,2.61,2.343,2.343,0,0,0,2.958-1.218,2.727,2.727,0,0,0-.174-2.436,6.538,6.538,0,0,1,.522,1.74c.2,1.294-.119,1.913.174,2.088.472.282,2.172-.8,2.262-2.262a2.411,2.411,0,0,0-.522-1.566,1.945,1.945,0,0,1,.7,1.392c-.038.9-1.046,1.4-.87,1.74.157.3,1.085.144,1.566,0a3.452,3.452,0,0,0,1.044-.522,1.717,1.717,0,0,0,.7-1.218,1.69,1.69,0,0,0-.87-1.566,3.285,3.285,0,0,1,.522,1.044c.2.7.044,1.057.348,1.392a1.41,1.41,0,0,0,1.044.348,1.774,1.774,0,0,0,1.392-.522,1.817,1.817,0,0,0-.348-2.262" transform="translate(-734.314 -805.964)" fill="none" stroke="#981d0d" stroke-miterlimit="10" stroke-width="1"></path><path id="Path_4908" data-name="Path 4908" d="M1125.336,744.17a15.49,15.49,0,0,1,2.61,3.48,17.616,17.616,0,0,1,1.914,6.785,34.491,34.491,0,0,1-.7,10.265c-.925,5.267-1.74,5.576-1.218,7.655.367,1.46,1.258,3.255.7,5.394a3.018,3.018,0,0,1-.87,1.566,4.058,4.058,0,0,1-2.958.7,48.671,48.671,0,0,1-5.22-.348" transform="translate(-1045.135 -646.307)" fill="none" stroke="#981d0d" stroke-miterlimit="10" stroke-width="1"></path><path id="Path_4909" data-name="Path 4909" d="M1120.18,791.224a3.328,3.328,0,0,0,1.044.348,4.1,4.1,0,0,0,1.044,0c.456-.037,1.046-.093,1.74-.174.079-2.425.265-8.089.348-10.613.166-5.044.19-5.706.174-6.611a39.049,39.049,0,0,0-3.132-14.267" transform="translate(-1045.633 -659.694)" fill="none" stroke="#981d0d" stroke-miterlimit="10" stroke-width="1"></path><path id="Path_4910" data-name="Path 4910" d="M1124.84,743.587a6.319,6.319,0,0,1,1.566,2.436" transform="translate(-1049.597 -645.811)" fill="#981d0d"></path><path id="Path_4911" data-name="Path 4911" d="M1154.65,775.643a34.845,34.845,0,0,1,1.777,6.806,70.706,70.706,0,0,1,.646,10.3,23.933,23.933,0,0,0,.161,3.665c.18,1.4.4,2.053.646,3.665a31.737,31.737,0,0,1,.323,3.315v1.4" transform="translate(-1074.958 -673.082)" fill="#981d0d"></path><path id="Path_4912" data-name="Path 4912" d="M839.257,815.665c-.007.05.9.136,2.262.522a18.447,18.447,0,0,1,3.828,1.566s2.612,1.291,5.742,2.436a30.19,30.19,0,0,0,6.437,1.566c.374.054.846.155.87.348.026.212-.5.436-.7.522a14.85,14.85,0,0,0-3.828,2.784,32.551,32.551,0,0,0-2.435,2.436c-.11.138-.472.6-.7.522-.13-.048-.161-.261-.174-.348,0,0-.055-.373.522-1.392a2.529,2.529,0,0,0-.7,1.044c-.122.356-.266,1.054,0,1.218.089.055.2.032.348,0a1.6,1.6,0,0,0,.7-.348c1.323-1.172,2.7-2.284,4-3.48a18.96,18.96,0,0,1,4.35-2.784,3.871,3.871,0,0,1,1.914-.348,1.638,1.638,0,0,1,1.218.522,1.116,1.116,0,0,1,.174.348c-.078.044-.2.107-.348.174a4.99,4.99,0,0,1-1.392.348,9.624,9.624,0,0,0-3.828,3.306,12.533,12.533,0,0,0-2.088,5.741,10.829,10.829,0,0,0,.348,5.046,13.739,13.739,0,0,0,1.392,2.61c.2.295.389.531.522.7a17.471,17.471,0,0,1-2.61,0,19.414,19.414,0,0,1-3.132-.522,22.324,22.324,0,0,1-6.263-2.784,17.77,17.77,0,0,0,2.784,1.914,19.164,19.164,0,0,0,5.219,1.914,19.89,19.89,0,0,0,2.262.348.883.883,0,0,0,.348,1.566l3.654-.174a3.536,3.536,0,0,1-2.088-.348c-.095-.056-.378-.222-.348-.348.024-.1.234-.107.522-.174.385-.09.934-.217,1.044-.522.132-.365-.394-.911-.522-1.044-.074-.078-.348-.348-.348-.348h0s.78.012,1.044,0a3.432,3.432,0,0,0,1.914-.87,5,5,0,0,0,1.566-2.088,9.336,9.336,0,0,1-1.914,1.392c-1,.549-1.946,1.064-2.784.7a1.877,1.877,0,0,1-.87-.87,11.148,11.148,0,0,1-.87-7.133,9.707,9.707,0,0,1,3.828-6.089,8.536,8.536,0,0,1,2.784-1.218,1.744,1.744,0,0,0,.87-.174c.172-.085.615-.3.7-.7.085-.408-.269-.783-.522-1.044a3.89,3.89,0,0,0-1.914-1.044c-1.373-.3-1.894.149-3.306.174a16.148,16.148,0,0,1-3.654-.87c-.978-.287-2.373-.7-4.176-1.392-1.087-.418-1.093-.466-2.958-1.218-1.711-.69-2.567-1.035-3.132-1.218A15.665,15.665,0,0,0,839.257,815.665Z" transform="translate(-806.64 -707.101)" fill="#981d0d"></path><path id="Path_4913" data-name="Path 4913" d="M796.858,894.147a17.069,17.069,0,0,1-2.957-4,16.859,16.859,0,0,1-.87-1.914c1.05,1.386,2,2.555,2.784,3.48a65.1,65.1,0,0,0,6.263,6.611c1.283,1.165,2.426,2.1,3.306,2.784a5.321,5.321,0,0,1-2.958.87,27.669,27.669,0,0,1-7.655-5.393,27.347,27.347,0,0,1-3.306-4,19.065,19.065,0,0,0,1.914,3.306,20.1,20.1,0,0,0,4.35,4.35,23.3,23.3,0,0,0,2.958,1.914,10.616,10.616,0,0,1-3.828,0,7.8,7.8,0,0,0,2.088.7,8.427,8.427,0,0,0,2.784,0,17.778,17.778,0,0,0,5.394-1.74c-.684-.475-1.659-1.179-2.783-2.088a60.031,60.031,0,0,1-6.611-6.437c-1.575-1.723-3.556-4-5.742-6.785a10.338,10.338,0,0,0,.348,2.088A11.806,11.806,0,0,0,796.858,894.147Z" transform="translate(-765.982 -766.793)" fill="#981d0d"></path><path id="Path_4914" data-name="Path 4914" d="M796.215,712.794a12.585,12.585,0,0,1,2.61.174c2.516.437,4.442,1.577,7.307,3.306.593.358,1.075.665,1.392.87a5.742,5.742,0,0,0,2.088,1.044,6.969,6.969,0,0,0,2.958,0c2.575-.366,3.862-.549,4.349-.7,3.745-1.129,6.157-5.288,6.785-6.438a16.247,16.247,0,0,1-4,4,12,12,0,0,1-3.828,1.914,11.225,11.225,0,0,1-4.176.348,22.14,22.14,0,0,0,3.306-2.088,24.267,24.267,0,0,0,5.393-5.916,61.3,61.3,0,0,0,6.437-12.353,73.838,73.838,0,0,1-5.741,9.569c-4.124,5.819-6.894,7.912-8,8.7a26.856,26.856,0,0,1-3.132,1.914,40.749,40.749,0,0,0-4-2.436,30.031,30.031,0,0,0-5.568-2.436,16.213,16.213,0,0,0-10.091.7l2.262.174Z" transform="translate(-764.99 -606.145)" fill="#981d0d"></path><path id="Path_4915" data-name="Path 4915" d="M1018.229,583.513a18.24,18.24,0,0,0-2.958-2.088,11.2,11.2,0,0,0-4.349-1.74c-3.591-.391-6.52,2.261-7.481,3.132a16.049,16.049,0,0,0-2.784,3.48c-.544.838-1.414,2.484-3.132,5.742a10.628,10.628,0,0,1-2.262,3.132,5.1,5.1,0,0,1-2.088,1.218,4.715,4.715,0,0,1-1.218.174,9.407,9.407,0,0,0,2.088-1.392,10.665,10.665,0,0,0,2.262-2.958c1.4-2.448,1.411-2.994,2.436-4.871a18.932,18.932,0,0,1,3.48-4.872,15.221,15.221,0,0,1,4-2.784,9.5,9.5,0,0,0,1.044-2.784c.45-2.229-.178-3.431,0-5.741a12,12,0,0,1,1.044-4,29.5,29.5,0,0,0-.348,3.828c-.05,2,.135,2.838,0,4.524a17.311,17.311,0,0,1-.7,3.654,1.213,1.213,0,0,0,.522-.174,2.013,2.013,0,0,0,.7-1.566,28.766,28.766,0,0,0,.174-3.654,12.592,12.592,0,0,1,.522-3.654c-.056,1.527-.034,2.773,0,3.654a20.993,20.993,0,0,1,0,3.132,14.886,14.886,0,0,1-.348,2.088,5.845,5.845,0,0,1,1.914-.174,13.269,13.269,0,0,0,.7-2.958,18.589,18.589,0,0,0-.348-5.045c-.489-3.9-.734-5.849-.522-7.481a7.6,7.6,0,0,0,0-3.828,4.86,4.86,0,0,0-1.566-2.262,4.243,4.243,0,0,0-.522-.348l-.174.174a10.212,10.212,0,0,1,.7,2.958,10.733,10.733,0,0,1-1.392,6.09c.052-.544.119-1.324.174-2.262a19.537,19.537,0,0,0,0-4.7,8,8,0,0,0-2.262-4c-.088.568-.222,1.48-.348,2.61-.165,1.479-.193,2.22-.348,4-.084.968-.193,2.225-.348,3.48-.152,1.234-.41,2.962-.87,5.046a9.253,9.253,0,0,1-.174-2.262,20.455,20.455,0,0,1,.522-2.958,11,11,0,0,0,0-3.48q-1.127,2.786-2.262,5.568-.781,1.914-1.566,3.828c.065-.557.172-1.338.348-2.262a30.929,30.929,0,0,1,1.74-5.916c.888-2.148,1.132-1.978,1.566-3.306a11.322,11.322,0,0,0,.348-5.394l-1.914,1.044a2.2,2.2,0,0,1,1.914-1.566,1.809,1.809,0,0,1,1.044.348,3.387,3.387,0,0,1,2.088,1.914,2.974,2.974,0,0,1,1.392,0,3.7,3.7,0,0,1,1.914,1.392,6.094,6.094,0,0,1,1.044,1.74,30.632,30.632,0,0,0-.348,4.524c0,1.063.051,1.715.522,6.959a23.82,23.82,0,0,1,.174,5.22,17.38,17.38,0,0,1-.7,3.306,10.077,10.077,0,0,1,5.393,2.436Z" transform="translate(-936.549 -484.171)" fill="#981d0d"></path><path id="Path_4916" data-name="Path 4916" d="M1183.979,509.189c-.192-.178-.863-.839-1.218-2.958-.269-1.6-.612-3.655.522-5.567a4.129,4.129,0,0,1,1.74-1.74,3.943,3.943,0,0,1,2.261-.348,14.1,14.1,0,0,1,6.09,2.262,3.034,3.034,0,0,1,.87,2.436c-.244,1.47-1.8,2.082-2.262,2.262a3.924,3.924,0,0,1-2.436.174,4.182,4.182,0,0,1-2.61-2.262c.662.3,1.2.536,1.566.7,1.35.6,1.638.71,2.088.7a3.4,3.4,0,0,0,1.566-.522,2.289,2.289,0,0,0,1.044-.87,1.579,1.579,0,0,0,.174-1.218,1.693,1.693,0,0,0-.87-.87,15.189,15.189,0,0,0-3.654-1.392c-.164-.048-.688-.2-1.392-.348a4.169,4.169,0,0,0-1.392-.174,2.656,2.656,0,0,0-1.566,1.392,6.407,6.407,0,0,0-.87,2.61,8.4,8.4,0,0,0,.522,4.176C1184.523,508.523,1184.47,509.63,1183.979,509.189Z" transform="translate(-1098.645 -437.336)" fill="#981d0d"></path><path id="Path_4917" data-name="Path 4917" d="M1262.488,529.841a3.08,3.08,0,0,1-.522,2.088,2.561,2.561,0,0,1-1.392,1.044,2.312,2.312,0,0,1-2.958-2.61,3.771,3.771,0,0,1,1.566-2.262c.819-.739,2.479-2.175,2.479-2.175a3.15,3.15,0,0,0,0,.75,3.941,3.941,0,0,0-1.278,1.035,7.619,7.619,0,0,0-1.723,1.783,1.928,1.928,0,0,0,0,1.74,1.721,1.721,0,0,0,1.218.7,2.088,2.088,0,0,0,1.392-.348A2.841,2.841,0,0,0,1262.488,529.841Z" transform="translate(-1162.539 -460.946)" fill="#981d0d"></path><path id="Path_4918" data-name="Path 4918" d="M1247.492,465.545l.183-.648.089.836-2.031,5.493-.309-.132c.58-2.03,1.354-3.52,1.933-5.549" transform="translate(-1152.415 -409.177)" fill="#981d0d"></path><path id="Path_4919" data-name="Path 4919" d="M1256.07,498.879c.134.014.083.113.174.211,0,0-.083.043,0,.46h0a6.122,6.122,0,0,1,.87-1.218,2.876,2.876,0,0,1,1.673-.98,2.4,2.4,0,0,1,1.284.284c.436.217.256.347.458.585s.159.465.349.365.2-.179.2-.179-.1-.18-.106-.187a1.248,1.248,0,0,0-.5-.869,2.642,2.642,0,0,0-1.348-.625,2.483,2.483,0,0,0-1.324.4,3.506,3.506,0,0,0-1.73,1.754Z" transform="translate(-1160.994 -435.701)" fill="#981d0d"></path><path id="Path_4920" data-name="Path 4920" d="M843.919,667.612a7.712,7.712,0,0,0,1.218-1.74,8.735,8.735,0,0,0,.87-3.48,12.264,12.264,0,0,0-.174-3.306,9.155,9.155,0,0,1-.348-4.872,8.677,8.677,0,0,1,.87-2.61,6.273,6.273,0,0,0,.7-1.566,5.832,5.832,0,0,0,.174-.87,4.8,4.8,0,0,1,.174.87,5.479,5.479,0,0,1-.348,2.436,11.054,11.054,0,0,0-.7,4.524,5.248,5.248,0,0,0,1.044,2.784,4.947,4.947,0,0,0,1.74,1.392,9.155,9.155,0,0,0-1.392-.174c-.31-.015-.6-.013-.87,0a8.228,8.228,0,0,1,0,2.436,10.612,10.612,0,0,1-1.392,3.654c-.208.374-.395.673-.522.87Z" transform="translate(-810.607 -565.486)" fill="#981d0d"></path><path id="Path_4921" data-name="Path 4921" d="M929.012,712.308a2.623,2.623,0,0,0,1.218.7,4.149,4.149,0,0,0,2.783-.7c1.154-.575,1.224-.871,1.914-1.044a3.651,3.651,0,0,1,2.436.348l.522-.7a4,4,0,0,0-.7-.348,4.379,4.379,0,0,0-2.436-.174,14.559,14.559,0,0,0-2.61,1.392,4.117,4.117,0,0,1-1.566.7A3.224,3.224,0,0,1,929.012,712.308Z" transform="translate(-882.999 -617.49)" fill="#981d0d"></path><path id="Path_4922" data-name="Path 4922" d="M978.591,495.3a1.2,1.2,0,0,1-.348.87c-.362.327-.771.135-1.218.522-.206.178-.444.5-.348.7s.482.176.522.174a1.2,1.2,0,0,0,.7-.348,1.893,1.893,0,0,0,.7-.87A1.673,1.673,0,0,0,978.591,495.3Z" transform="translate(-923.531 -434.587)" fill="#981d0d"></path><path id="Path_4923" data-name="Path 4923" d="M924.076,461.726a.462.462,0,0,0-.174.522.372.372,0,0,0,.174.174,12.712,12.712,0,0,0,3.828.174,11.133,11.133,0,0,0,4.524-1.392,10.62,10.62,0,0,0,2.262-1.74.836.836,0,0,0-.174-.174,1.407,1.407,0,0,0-.348-.174h0a6.535,6.535,0,0,1,.7,0,1.646,1.646,0,0,1,1.044.522,1.538,1.538,0,0,1,.348,1.392,1.256,1.256,0,0,1-.348.522,1.616,1.616,0,0,0-.174-.7,4.235,4.235,0,0,0-.348-.522h0l-1.392,1.044a13.079,13.079,0,0,1-3.48,1.74,9.306,9.306,0,0,1-4.524.7,7.564,7.564,0,0,1-1.914-.522.9.9,0,0,0-.174.522c0,.157.056.243,0,.348a.378.378,0,0,1-.348.174c-.292-.026-.473-.491-.522-.7C922.821,462.748,923.944,461.831,924.076,461.726Z" transform="translate(-877.889 -403.793)" fill="#981d0d"></path><path id="Path_4924" data-name="Path 4924" d="M933.009,421.333a.125.125,0,0,1,.134-.206,4.6,4.6,0,0,0,2.89.239,5.305,5.305,0,0,0,2.436-1.566,6.636,6.636,0,0,0,.752-.921.125.125,0,0,1,.227.09,4.424,4.424,0,0,1-.805,1.874,3.918,3.918,0,0,1-2.262,1.566A3.849,3.849,0,0,1,933.009,421.333Z" transform="translate(-886.366 -369.521)" fill="#981d0d"></path><path id="Path_4925" data-name="Path 4925" d="M932.419,408.586c.111.418-.128.551,0,.87.137.341.443.271.7.7a1.188,1.188,0,0,1,.174.7,1.123,1.123,0,0,1-.522.87,1.481,1.481,0,0,1-1.392-.174,2.466,2.466,0,0,1-1.218-2.262c.031-.466.239-1.391.87-1.566a1.179,1.179,0,0,1,.87.174A1.246,1.246,0,0,1,932.419,408.586Z" transform="translate(-883.97 -360.047)" fill="#f6fcfc"></path><path id="Path_4926" data-name="Path 4926" d="M787.968,387.386a1.9,1.9,0,0,0,.7,1.044,1.925,1.925,0,0,0,1.392.348,8.672,8.672,0,0,1,1.914-3.132,8.088,8.088,0,0,1,4.349-2.436,7.96,7.96,0,0,1,4.176.348,1.749,1.749,0,0,0,.7-.87,1.942,1.942,0,0,0-.348-1.74c.038.423-.063.608-.174.7a1.288,1.288,0,0,1-.522.174h0a4.325,4.325,0,0,0-.87-1.218,4.822,4.822,0,0,0-1.044-.7h0a11.308,11.308,0,0,1,.7,1.044,3.372,3.372,0,0,1,.348,1.218,5.821,5.821,0,0,0-1.566-.348c-4.3-.339-7.552,4.373-8,5.046a2.91,2.91,0,0,1-.174-.7,1.778,1.778,0,0,1-.009-.616c.009-.045.018-.076.008-.08a1.672,1.672,0,0,0-.522,1.044,1.818,1.818,0,0,0,.174,1.044A1.947,1.947,0,0,1,787.968,387.386Z" transform="translate(-763.007 -336.412)" fill="#981d0d"></path><path id="Path_4927" data-name="Path 4927" d="M989.581,334.132c-.07.06.343.677.87,1.218.438.45.665.55.87.522a.734.734,0,0,0,.348-.174,1.661,1.661,0,0,0,.522-.7,7.584,7.584,0,0,1,3.828-2.958c1.735-.6,4.169-.6,5.22.174a2.216,2.216,0,0,0,1.392.522,1.985,1.985,0,0,0,.7-.174,1.716,1.716,0,0,0,.87-.7,1.578,1.578,0,0,0,.174-1.044,1.246,1.246,0,0,0-.348.174,2.262,2.262,0,0,0-.348.348c-.256.285-.273.324-.348.348-.2.064-.414-.094-.522-.174-.386-.288-.4-.608-.7-1.044a2.684,2.684,0,0,0-.7-.7,3.132,3.132,0,0,1,.522,1.566c-.2-.088-.5-.213-.87-.348a14.75,14.75,0,0,0-1.74-.522,7.677,7.677,0,0,0-5.22,1.044,7.906,7.906,0,0,0-2.61,2.61,1.88,1.88,0,0,1-.348-.7,2,2,0,0,1,.174-1.392,3.547,3.547,0,0,0-.522,2.436,1.308,1.308,0,0,1-.522,0C989.84,334.388,989.63,334.09,989.581,334.132Z" transform="translate(-934.521 -293.771)" fill="#981d0d"></path><path id="Path_4928" data-name="Path 4928" d="M1018.6,254.8a7.411,7.411,0,0,0-1.914-1.566,3.668,3.668,0,0,0-2.61-.7c-.143.032-1.094.245-1.218.87a1.1,1.1,0,0,0,.522,1.044c.606.39,1.284-.04,2.262-.174A5.263,5.263,0,0,1,1018.6,254.8Z" transform="translate(-954.317 -228.007)" fill="#981d0d"></path><path id="Path_4929" data-name="Path 4929" d="M773.342,321.479a4.631,4.631,0,0,1,1.392-1.566c.9-.621,1.629-.608,2.088-1.392a1.19,1.19,0,0,0,.174-1.044,1.01,1.01,0,0,0-.87-.522c-.236-.01-.537.062-1.218.7a4.385,4.385,0,0,0-1.566,2.088A3.431,3.431,0,0,0,773.342,321.479Z" transform="translate(-750.469 -282.858)" fill="#981d0d"></path><path id="Path_4930" data-name="Path 4930" d="M642.55,561.68a.589.589,0,0,0-.7,0,.532.532,0,0,0-.174.348l4.176,5.22.7-.522Z" transform="translate(-638.554 -490.959)" fill="#a2260a"></path><path id="Path_4931" data-name="Path 4931" d="M637.017,631.1a3.252,3.252,0,0,1,1.74-.87,3.012,3.012,0,0,1,2.262.522c.205.156,1.294,1.031,1.044,2.088a1.619,1.619,0,0,1-.87,1.044,1.808,1.808,0,0,1-2.088-.7,2.029,2.029,0,0,0,1.044,1.392,2.064,2.064,0,0,0,1.914-.174,2.292,2.292,0,0,0,1.044-1.566,2.447,2.447,0,0,0-.522-1.74,3.713,3.713,0,0,0-1.914-1.392,4.6,4.6,0,0,0-2.958,0A2.006,2.006,0,0,0,637.017,631.1Z" transform="translate(-634.587 -548.724)" fill="#a2260a"></path><path id="Path_4932" data-name="Path 4932" d="M642.2,606.923a2.286,2.286,0,0,1,1.218-.7,2.531,2.531,0,0,1,2.436,1.044.677.677,0,0,0,0,.87.665.665,0,0,0,.7.174l.174-1.392a3.46,3.46,0,0,0-1.044-1.044,3.123,3.123,0,0,0-2.088-.522,3.075,3.075,0,0,0-1.914,1.044Z" transform="translate(-638.554 -528.198)" fill="#a2260a"></path><path id="Path_4933" data-name="Path 4933" d="M678.8,590.611a4.8,4.8,0,0,0-2.436-2.61,4.99,4.99,0,0,0-4.35.348,5.181,5.181,0,0,0-2.262,2.436c-.28.653-.75,1.751-.174,2.61a2.211,2.211,0,0,0,1.914.87,3.433,3.433,0,0,0,2.349-1.653,5.854,5.854,0,0,0,.87-1.566,3.125,3.125,0,0,1-1.044,3.306c.052.125.428,1.042.174,1.218-.152.105-.531-.055-.7-.348a.77.77,0,0,1,0-.7,2.965,2.965,0,0,1-.7.522,2.633,2.633,0,0,1-1.218.348,2.585,2.585,0,0,1-1.74-.7,3,3,0,0,1-.87-1.74,5.015,5.015,0,0,1,1.218-4.176,5.527,5.527,0,0,1,3.654-1.74,4.867,4.867,0,0,1,3.48.7A4.655,4.655,0,0,1,678.8,590.611Z" transform="translate(-661.411 -512.582)" fill="#a2260a"></path></g></g><text id="Search_Engine_Monks" data-name="Search Engine Monks" transform="translate(352 180)" fill="#646464" font-size="80" font-family="Poppins-SemiBold, Poppins" font-weight="600"><tspan x="0" y="0">Search Engine Monks</tspan></text></g></svg>